<svg width="1244" height="690" viewBox="0 0 1244 690" fill="none" xmlns="http://www.w3.org/2000/svg">
<rect width="1244" height="689" fill="#C4C4C4"/>
<rect x="9" y="8" width="227" height="673" fill="#C4C4C4"/>
<rect x="638" y="18" width="569" height="658" rx="15" fill="white"/>
<path d="M703.971 126V100.406H712.338C715.115 100.406 717.201 100.98 718.596 102.129C720.002 103.277 720.705 104.977 720.705 107.227C720.705 108.422 720.365 109.482 719.686 110.408C719.006 111.322 718.08 112.031 716.908 112.535C718.291 112.922 719.381 113.66 720.178 114.75C720.986 115.828 721.391 117.117 721.391 118.617C721.391 120.914 720.646 122.719 719.158 124.031C717.67 125.344 715.566 126 712.848 126H703.971ZM707.346 114.029V123.24H712.918C714.488 123.24 715.725 122.836 716.627 122.027C717.541 121.207 717.998 120.082 717.998 118.652C717.998 115.57 716.322 114.029 712.971 114.029H707.346ZM707.346 111.322H712.443C713.92 111.322 715.098 110.953 715.977 110.215C716.867 109.477 717.312 108.475 717.312 107.209C717.312 105.803 716.902 104.783 716.082 104.15C715.262 103.506 714.014 103.184 712.338 103.184H707.346V111.322ZM733.783 126.352C731.205 126.352 729.107 125.508 727.49 123.82C725.873 122.121 725.064 119.854 725.064 117.018V116.42C725.064 114.533 725.422 112.852 726.137 111.375C726.863 109.887 727.871 108.727 729.16 107.895C730.461 107.051 731.867 106.629 733.379 106.629C735.852 106.629 737.773 107.443 739.145 109.072C740.516 110.701 741.201 113.033 741.201 116.068V117.422H728.316C728.363 119.297 728.908 120.814 729.951 121.975C731.006 123.123 732.342 123.697 733.959 123.697C735.107 123.697 736.08 123.463 736.877 122.994C737.674 122.525 738.371 121.904 738.969 121.131L740.955 122.678C739.361 125.127 736.971 126.352 733.783 126.352ZM733.379 109.301C732.066 109.301 730.965 109.781 730.074 110.742C729.184 111.691 728.633 113.027 728.422 114.75H737.949V114.504C737.855 112.852 737.41 111.574 736.613 110.672C735.816 109.758 734.738 109.301 733.379 109.301ZM748.039 106.98L748.127 109.09C749.521 107.449 751.402 106.629 753.77 106.629C756.43 106.629 758.24 107.648 759.201 109.688C759.834 108.773 760.654 108.035 761.662 107.473C762.682 106.91 763.883 106.629 765.266 106.629C769.438 106.629 771.559 108.838 771.629 113.256V126H768.377V113.449C768.377 112.09 768.066 111.076 767.445 110.408C766.824 109.729 765.781 109.389 764.316 109.389C763.109 109.389 762.107 109.752 761.311 110.479C760.514 111.193 760.051 112.16 759.922 113.379V126H756.652V113.537C756.652 110.771 755.299 109.389 752.592 109.389C750.459 109.389 749 110.297 748.215 112.113V126H744.963V106.98H748.039ZM783.318 116.455H774.74V113.801H783.318V116.455ZM792.775 121.588L797.486 106.98H800.809L793.988 126H791.51L784.619 106.98H787.941L792.775 121.588ZM807.471 126H804.219V106.98H807.471V126ZM803.955 101.936C803.955 101.408 804.113 100.963 804.43 100.6C804.758 100.236 805.238 100.055 805.871 100.055C806.504 100.055 806.984 100.236 807.312 100.6C807.641 100.963 807.805 101.408 807.805 101.936C807.805 102.463 807.641 102.902 807.312 103.254C806.984 103.605 806.504 103.781 805.871 103.781C805.238 103.781 804.758 103.605 804.43 103.254C804.113 102.902 803.955 102.463 803.955 101.936ZM815.768 106.98L815.873 109.371C817.326 107.543 819.225 106.629 821.568 106.629C825.588 106.629 827.615 108.896 827.65 113.432V126H824.398V113.414C824.387 112.043 824.07 111.029 823.449 110.373C822.84 109.717 821.885 109.389 820.584 109.389C819.529 109.389 818.604 109.67 817.807 110.232C817.01 110.795 816.389 111.533 815.943 112.447V126H812.691V106.98H815.768ZM831.764 116.332C831.764 113.414 832.455 111.07 833.838 109.301C835.221 107.52 837.031 106.629 839.27 106.629C841.496 106.629 843.26 107.391 844.561 108.914V99H847.812V126H844.824L844.666 123.961C843.365 125.555 841.555 126.352 839.234 126.352C837.031 126.352 835.232 125.449 833.838 123.645C832.455 121.84 831.764 119.484 831.764 116.578V116.332ZM835.016 116.701C835.016 118.857 835.461 120.545 836.352 121.764C837.242 122.982 838.473 123.592 840.043 123.592C842.105 123.592 843.611 122.666 844.561 120.814V112.078C843.588 110.285 842.094 109.389 840.078 109.389C838.484 109.389 837.242 110.004 836.352 111.234C835.461 112.465 835.016 114.287 835.016 116.701ZM852.014 116.314C852.014 114.451 852.377 112.775 853.104 111.287C853.842 109.799 854.861 108.65 856.162 107.842C857.475 107.033 858.969 106.629 860.645 106.629C863.234 106.629 865.326 107.525 866.92 109.318C868.525 111.111 869.328 113.496 869.328 116.473V116.701C869.328 118.553 868.971 120.217 868.256 121.693C867.553 123.158 866.539 124.301 865.215 125.121C863.902 125.941 862.391 126.352 860.68 126.352C858.102 126.352 856.01 125.455 854.404 123.662C852.811 121.869 852.014 119.496 852.014 116.543V116.314ZM855.283 116.701C855.283 118.811 855.77 120.504 856.742 121.781C857.727 123.059 859.039 123.697 860.68 123.697C862.332 123.697 863.645 123.053 864.617 121.764C865.59 120.463 866.076 118.646 866.076 116.314C866.076 114.229 865.578 112.541 864.582 111.252C863.598 109.951 862.285 109.301 860.645 109.301C859.039 109.301 857.744 109.939 856.76 111.217C855.775 112.494 855.283 114.322 855.283 116.701ZM897.312 114.17H886.221V123.24H899.105V126H882.846V100.406H898.93V103.184H886.221V111.41H897.312V114.17ZM909.178 113.924L913.396 106.98H917.193L910.971 116.385L917.387 126H913.625L909.23 118.881L904.836 126H901.057L907.473 116.385L901.25 106.98H905.012L909.178 113.924ZM936.723 116.701C936.723 119.596 936.061 121.928 934.736 123.697C933.412 125.467 931.619 126.352 929.357 126.352C927.049 126.352 925.232 125.619 923.908 124.154V133.312H920.656V106.98H923.627L923.785 109.09C925.109 107.449 926.949 106.629 929.305 106.629C931.59 106.629 933.395 107.49 934.719 109.213C936.055 110.936 936.723 113.332 936.723 116.402V116.701ZM933.471 116.332C933.471 114.188 933.014 112.494 932.1 111.252C931.186 110.01 929.932 109.389 928.338 109.389C926.369 109.389 924.893 110.262 923.908 112.008V121.096C924.881 122.83 926.369 123.697 928.373 123.697C929.932 123.697 931.168 123.082 932.082 121.852C933.008 120.609 933.471 118.77 933.471 116.332ZM944.404 126H941.152V99H944.404V126ZM948.764 116.314C948.764 114.451 949.127 112.775 949.854 111.287C950.592 109.799 951.611 108.65 952.912 107.842C954.225 107.033 955.719 106.629 957.395 106.629C959.984 106.629 962.076 107.525 963.67 109.318C965.275 111.111 966.078 113.496 966.078 116.473V116.701C966.078 118.553 965.721 120.217 965.006 121.693C964.303 123.158 963.289 124.301 961.965 125.121C960.652 125.941 959.141 126.352 957.43 126.352C954.852 126.352 952.76 125.455 951.154 123.662C949.561 121.869 948.764 119.496 948.764 116.543V116.314ZM952.033 116.701C952.033 118.811 952.52 120.504 953.492 121.781C954.477 123.059 955.789 123.697 957.43 123.697C959.082 123.697 960.395 123.053 961.367 121.764C962.34 120.463 962.826 118.646 962.826 116.314C962.826 114.229 962.328 112.541 961.332 111.252C960.348 109.951 959.035 109.301 957.395 109.301C955.789 109.301 954.494 109.939 953.51 111.217C952.525 112.494 952.033 114.322 952.033 116.701ZM979.35 109.898C978.857 109.816 978.324 109.775 977.75 109.775C975.617 109.775 974.17 110.684 973.408 112.5V126H970.156V106.98H973.32L973.373 109.178C974.439 107.479 975.951 106.629 977.908 106.629C978.541 106.629 979.021 106.711 979.35 106.875V109.898ZM993.395 126C993.207 125.625 993.055 124.957 992.938 123.996C991.426 125.566 989.621 126.352 987.523 126.352C985.648 126.352 984.107 125.824 982.9 124.77C981.705 123.703 981.107 122.355 981.107 120.727C981.107 118.746 981.857 117.211 983.357 116.121C984.869 115.02 986.99 114.469 989.721 114.469H992.885V112.975C992.885 111.838 992.545 110.936 991.865 110.268C991.186 109.588 990.184 109.248 988.859 109.248C987.699 109.248 986.727 109.541 985.941 110.127C985.156 110.713 984.764 111.422 984.764 112.254H981.494C981.494 111.305 981.828 110.391 982.496 109.512C983.176 108.621 984.09 107.918 985.238 107.402C986.398 106.887 987.67 106.629 989.053 106.629C991.244 106.629 992.961 107.18 994.203 108.281C995.445 109.371 996.09 110.877 996.137 112.799V121.553C996.137 123.299 996.359 124.688 996.805 125.719V126H993.395ZM987.998 123.521C989.018 123.521 989.984 123.258 990.898 122.73C991.812 122.203 992.475 121.518 992.885 120.674V116.771H990.336C986.352 116.771 984.359 117.938 984.359 120.27C984.359 121.289 984.699 122.086 985.379 122.66C986.059 123.234 986.932 123.521 987.998 123.521ZM1000.44 116.332C1000.44 113.414 1001.13 111.07 1002.52 109.301C1003.9 107.52 1005.71 106.629 1007.95 106.629C1010.18 106.629 1011.94 107.391 1013.24 108.914V99H1016.49V126H1013.5L1013.35 123.961C1012.04 125.555 1010.23 126.352 1007.91 126.352C1005.71 126.352 1003.91 125.449 1002.52 123.645C1001.13 121.84 1000.44 119.484 1000.44 116.578V116.332ZM1003.7 116.701C1003.7 118.857 1004.14 120.545 1005.03 121.764C1005.92 122.982 1007.15 123.592 1008.72 123.592C1010.79 123.592 1012.29 122.666 1013.24 120.814V112.078C1012.27 110.285 1010.77 109.389 1008.76 109.389C1007.16 109.389 1005.92 110.004 1005.03 111.234C1004.14 112.465 1003.7 114.287 1003.7 116.701ZM1020.69 116.314C1020.69 114.451 1021.06 112.775 1021.78 111.287C1022.52 109.799 1023.54 108.65 1024.84 107.842C1026.15 107.033 1027.65 106.629 1029.32 106.629C1031.91 106.629 1034.01 107.525 1035.6 109.318C1037.21 111.111 1038.01 113.496 1038.01 116.473V116.701C1038.01 118.553 1037.65 120.217 1036.94 121.693C1036.23 123.158 1035.22 124.301 1033.89 125.121C1032.58 125.941 1031.07 126.352 1029.36 126.352C1026.78 126.352 1024.69 125.455 1023.08 123.662C1021.49 121.869 1020.69 119.496 1020.69 116.543V116.314ZM1023.96 116.701C1023.96 118.811 1024.45 120.504 1025.42 121.781C1026.41 123.059 1027.72 123.697 1029.36 123.697C1031.01 123.697 1032.32 123.053 1033.3 121.764C1034.27 120.463 1034.76 118.646 1034.76 116.314C1034.76 114.229 1034.26 112.541 1033.26 111.252C1032.28 109.951 1030.96 109.301 1029.32 109.301C1027.72 109.301 1026.42 109.939 1025.44 111.217C1024.46 112.494 1023.96 114.322 1023.96 116.701ZM1051.28 109.898C1050.79 109.816 1050.25 109.775 1049.68 109.775C1047.55 109.775 1046.1 110.684 1045.34 112.5V126H1042.09V106.98H1045.25L1045.3 109.178C1046.37 107.479 1047.88 106.629 1049.84 106.629C1050.47 106.629 1050.95 106.711 1051.28 106.875V109.898ZM1057.92 118.775H1054.99L1054.76 100.406H1058.17L1057.92 118.775ZM1054.64 124.365C1054.64 123.838 1054.79 123.398 1055.11 123.047C1055.44 122.684 1055.92 122.502 1056.55 122.502C1057.19 122.502 1057.67 122.684 1057.99 123.047C1058.32 123.398 1058.49 123.838 1058.49 124.365C1058.49 124.893 1058.32 125.332 1057.99 125.684C1057.67 126.023 1057.19 126.193 1056.55 126.193C1055.92 126.193 1055.44 126.023 1055.11 125.684C1054.79 125.332 1054.64 124.893 1054.64 124.365ZM712.391 174.465H705.23V182H702.98V164.938H713.551V166.789H705.23V172.625H712.391V174.465ZM723.336 182C723.211 181.75 723.109 181.305 723.031 180.664C722.023 181.711 720.82 182.234 719.422 182.234C718.172 182.234 717.145 181.883 716.34 181.18C715.543 180.469 715.145 179.57 715.145 178.484C715.145 177.164 715.645 176.141 716.645 175.414C717.652 174.68 719.066 174.312 720.887 174.312H722.996V173.316C722.996 172.559 722.77 171.957 722.316 171.512C721.863 171.059 721.195 170.832 720.312 170.832C719.539 170.832 718.891 171.027 718.367 171.418C717.844 171.809 717.582 172.281 717.582 172.836H715.402C715.402 172.203 715.625 171.594 716.07 171.008C716.523 170.414 717.133 169.945 717.898 169.602C718.672 169.258 719.52 169.086 720.441 169.086C721.902 169.086 723.047 169.453 723.875 170.188C724.703 170.914 725.133 171.918 725.164 173.199V179.035C725.164 180.199 725.312 181.125 725.609 181.812V182H723.336ZM719.738 180.348C720.418 180.348 721.062 180.172 721.672 179.82C722.281 179.469 722.723 179.012 722.996 178.449V175.848H721.297C718.641 175.848 717.312 176.625 717.312 178.18C717.312 178.859 717.539 179.391 717.992 179.773C718.445 180.156 719.027 180.348 719.738 180.348ZM733.648 180.465C734.422 180.465 735.098 180.23 735.676 179.762C736.254 179.293 736.574 178.707 736.637 178.004H738.688C738.648 178.73 738.398 179.422 737.938 180.078C737.477 180.734 736.859 181.258 736.086 181.648C735.32 182.039 734.508 182.234 733.648 182.234C731.922 182.234 730.547 181.66 729.523 180.512C728.508 179.355 728 177.777 728 175.777V175.414C728 174.18 728.227 173.082 728.68 172.121C729.133 171.16 729.781 170.414 730.625 169.883C731.477 169.352 732.48 169.086 733.637 169.086C735.059 169.086 736.238 169.512 737.176 170.363C738.121 171.215 738.625 172.32 738.688 173.68H736.637C736.574 172.859 736.262 172.188 735.699 171.664C735.145 171.133 734.457 170.867 733.637 170.867C732.535 170.867 731.68 171.266 731.07 172.062C730.469 172.852 730.168 173.996 730.168 175.496V175.906C730.168 177.367 730.469 178.492 731.07 179.281C731.672 180.07 732.531 180.465 733.648 180.465ZM734 182.105L733.859 182.715C735.055 182.926 735.652 183.602 735.652 184.742C735.652 185.5 735.34 186.098 734.715 186.535C734.09 186.98 733.219 187.203 732.102 187.203L732.02 185.949C732.637 185.949 733.113 185.848 733.449 185.645C733.793 185.441 733.965 185.156 733.965 184.789C733.965 184.445 733.84 184.191 733.59 184.027C733.34 183.863 732.832 183.746 732.066 183.676L732.441 182.105H734ZM748.953 182C748.828 181.75 748.727 181.305 748.648 180.664C747.641 181.711 746.438 182.234 745.039 182.234C743.789 182.234 742.762 181.883 741.957 181.18C741.16 180.469 740.762 179.57 740.762 178.484C740.762 177.164 741.262 176.141 742.262 175.414C743.27 174.68 744.684 174.312 746.504 174.312H748.613V173.316C748.613 172.559 748.387 171.957 747.934 171.512C747.48 171.059 746.812 170.832 745.93 170.832C745.156 170.832 744.508 171.027 743.984 171.418C743.461 171.809 743.199 172.281 743.199 172.836H741.02C741.02 172.203 741.242 171.594 741.688 171.008C742.141 170.414 742.75 169.945 743.516 169.602C744.289 169.258 745.137 169.086 746.059 169.086C747.52 169.086 748.664 169.453 749.492 170.188C750.32 170.914 750.75 171.918 750.781 173.199V179.035C750.781 180.199 750.93 181.125 751.227 181.812V182H748.953ZM745.355 180.348C746.035 180.348 746.68 180.172 747.289 179.82C747.898 179.469 748.34 179.012 748.613 178.449V175.848H746.914C744.258 175.848 742.93 176.625 742.93 178.18C742.93 178.859 743.156 179.391 743.609 179.773C744.062 180.156 744.645 180.348 745.355 180.348ZM762.734 180.16H770.82V182H760.473V164.938H762.734V180.16ZM772.473 175.543C772.473 174.301 772.715 173.184 773.199 172.191C773.691 171.199 774.371 170.434 775.238 169.895C776.113 169.355 777.109 169.086 778.227 169.086C779.953 169.086 781.348 169.684 782.41 170.879C783.48 172.074 784.016 173.664 784.016 175.648V175.801C784.016 177.035 783.777 178.145 783.301 179.129C782.832 180.105 782.156 180.867 781.273 181.414C780.398 181.961 779.391 182.234 778.25 182.234C776.531 182.234 775.137 181.637 774.066 180.441C773.004 179.246 772.473 177.664 772.473 175.695V175.543ZM774.652 175.801C774.652 177.207 774.977 178.336 775.625 179.188C776.281 180.039 777.156 180.465 778.25 180.465C779.352 180.465 780.227 180.035 780.875 179.176C781.523 178.309 781.848 177.098 781.848 175.543C781.848 174.152 781.516 173.027 780.852 172.168C780.195 171.301 779.32 170.867 778.227 170.867C777.156 170.867 776.293 171.293 775.637 172.145C774.98 172.996 774.652 174.215 774.652 175.801ZM786.219 175.555C786.219 173.578 786.676 172.008 787.59 170.844C788.504 169.672 789.715 169.086 791.223 169.086C792.77 169.086 793.977 169.633 794.844 170.727L794.949 169.32H796.93V181.695C796.93 183.336 796.441 184.629 795.465 185.574C794.496 186.52 793.191 186.992 791.551 186.992C790.637 186.992 789.742 186.797 788.867 186.406C787.992 186.016 787.324 185.48 786.863 184.801L787.988 183.5C788.918 184.648 790.055 185.223 791.398 185.223C792.453 185.223 793.273 184.926 793.859 184.332C794.453 183.738 794.75 182.902 794.75 181.824V180.734C793.883 181.734 792.699 182.234 791.199 182.234C789.715 182.234 788.512 181.637 787.59 180.441C786.676 179.246 786.219 177.617 786.219 175.555ZM788.398 175.801C788.398 177.23 788.691 178.355 789.277 179.176C789.863 179.988 790.684 180.395 791.738 180.395C793.105 180.395 794.109 179.773 794.75 178.531V172.742C794.086 171.531 793.09 170.926 791.762 170.926C790.707 170.926 789.883 171.336 789.289 172.156C788.695 172.977 788.398 174.191 788.398 175.801ZM802.566 182H800.398V169.32H802.566V182ZM800.223 165.957C800.223 165.605 800.328 165.309 800.539 165.066C800.758 164.824 801.078 164.703 801.5 164.703C801.922 164.703 802.242 164.824 802.461 165.066C802.68 165.309 802.789 165.605 802.789 165.957C802.789 166.309 802.68 166.602 802.461 166.836C802.242 167.07 801.922 167.188 801.5 167.188C801.078 167.188 800.758 167.07 800.539 166.836C800.328 166.602 800.223 166.309 800.223 165.957ZM808.098 169.32L808.168 170.914C809.137 169.695 810.402 169.086 811.965 169.086C814.645 169.086 815.996 170.598 816.02 173.621V182H813.852V173.609C813.844 172.695 813.633 172.02 813.219 171.582C812.812 171.145 812.176 170.926 811.309 170.926C810.605 170.926 809.988 171.113 809.457 171.488C808.926 171.863 808.512 172.355 808.215 172.965V182H806.047V169.32H808.098ZM830.504 182.234C828.785 182.234 827.387 181.672 826.309 180.547C825.23 179.414 824.691 177.902 824.691 176.012V175.613C824.691 174.355 824.93 173.234 825.406 172.25C825.891 171.258 826.562 170.484 827.422 169.93C828.289 169.367 829.227 169.086 830.234 169.086C831.883 169.086 833.164 169.629 834.078 170.715C834.992 171.801 835.449 173.355 835.449 175.379V176.281H826.859C826.891 177.531 827.254 178.543 827.949 179.316C828.652 180.082 829.543 180.465 830.621 180.465C831.387 180.465 832.035 180.309 832.566 179.996C833.098 179.684 833.562 179.27 833.961 178.754L835.285 179.785C834.223 181.418 832.629 182.234 830.504 182.234ZM830.234 170.867C829.359 170.867 828.625 171.188 828.031 171.828C827.438 172.461 827.07 173.352 826.93 174.5H833.281V174.336C833.219 173.234 832.922 172.383 832.391 171.781C831.859 171.172 831.141 170.867 830.234 170.867ZM840.008 169.32L840.066 170.727C840.996 169.633 842.25 169.086 843.828 169.086C845.602 169.086 846.809 169.766 847.449 171.125C847.871 170.516 848.418 170.023 849.09 169.648C849.77 169.273 850.57 169.086 851.492 169.086C854.273 169.086 855.688 170.559 855.734 173.504V182H853.566V173.633C853.566 172.727 853.359 172.051 852.945 171.605C852.531 171.152 851.836 170.926 850.859 170.926C850.055 170.926 849.387 171.168 848.855 171.652C848.324 172.129 848.016 172.773 847.93 173.586V182H845.75V173.691C845.75 171.848 844.848 170.926 843.043 170.926C841.621 170.926 840.648 171.531 840.125 172.742V182H837.957V169.32H840.008ZM872.352 178.637C872.352 178.051 872.129 177.598 871.684 177.277C871.246 176.949 870.477 176.668 869.375 176.434C868.281 176.199 867.41 175.918 866.762 175.59C866.121 175.262 865.645 174.871 865.332 174.418C865.027 173.965 864.875 173.426 864.875 172.801C864.875 171.762 865.312 170.883 866.188 170.164C867.07 169.445 868.195 169.086 869.562 169.086C871 169.086 872.164 169.457 873.055 170.199C873.953 170.941 874.402 171.891 874.402 173.047H872.223C872.223 172.453 871.969 171.941 871.461 171.512C870.961 171.082 870.328 170.867 869.562 170.867C868.773 170.867 868.156 171.039 867.711 171.383C867.266 171.727 867.043 172.176 867.043 172.73C867.043 173.254 867.25 173.648 867.664 173.914C868.078 174.18 868.824 174.434 869.902 174.676C870.988 174.918 871.867 175.207 872.539 175.543C873.211 175.879 873.707 176.285 874.027 176.762C874.355 177.23 874.52 177.805 874.52 178.484C874.52 179.617 874.066 180.527 873.16 181.215C872.254 181.895 871.078 182.234 869.633 182.234C868.617 182.234 867.719 182.055 866.938 181.695C866.156 181.336 865.543 180.836 865.098 180.195C864.66 179.547 864.441 178.848 864.441 178.098H866.609C866.648 178.824 866.938 179.402 867.477 179.832C868.023 180.254 868.742 180.465 869.633 180.465C870.453 180.465 871.109 180.301 871.602 179.973C872.102 179.637 872.352 179.191 872.352 178.637ZM885.172 180.746C884.328 181.738 883.09 182.234 881.457 182.234C880.105 182.234 879.074 181.844 878.363 181.062C877.66 180.273 877.305 179.109 877.297 177.57V169.32H879.465V177.512C879.465 179.434 880.246 180.395 881.809 180.395C883.465 180.395 884.566 179.777 885.113 178.543V169.32H887.281V182H885.219L885.172 180.746ZM898.414 182C898.289 181.75 898.188 181.305 898.109 180.664C897.102 181.711 895.898 182.234 894.5 182.234C893.25 182.234 892.223 181.883 891.418 181.18C890.621 180.469 890.223 179.57 890.223 178.484C890.223 177.164 890.723 176.141 891.723 175.414C892.73 174.68 894.145 174.312 895.965 174.312H898.074V173.316C898.074 172.559 897.848 171.957 897.395 171.512C896.941 171.059 896.273 170.832 895.391 170.832C894.617 170.832 893.969 171.027 893.445 171.418C892.922 171.809 892.66 172.281 892.66 172.836H890.48C890.48 172.203 890.703 171.594 891.148 171.008C891.602 170.414 892.211 169.945 892.977 169.602C893.75 169.258 894.598 169.086 895.52 169.086C896.98 169.086 898.125 169.453 898.953 170.188C899.781 170.914 900.211 171.918 900.242 173.199V179.035C900.242 180.199 900.391 181.125 900.688 181.812V182H898.414ZM894.816 180.348C895.496 180.348 896.141 180.172 896.75 179.82C897.359 179.469 897.801 179.012 898.074 178.449V175.848H896.375C893.719 175.848 892.391 176.625 892.391 178.18C892.391 178.859 892.617 179.391 893.07 179.773C893.523 180.156 894.105 180.348 894.816 180.348ZM914.68 180.465C915.453 180.465 916.129 180.23 916.707 179.762C917.285 179.293 917.605 178.707 917.668 178.004H919.719C919.68 178.73 919.43 179.422 918.969 180.078C918.508 180.734 917.891 181.258 917.117 181.648C916.352 182.039 915.539 182.234 914.68 182.234C912.953 182.234 911.578 181.66 910.555 180.512C909.539 179.355 909.031 177.777 909.031 175.777V175.414C909.031 174.18 909.258 173.082 909.711 172.121C910.164 171.16 910.812 170.414 911.656 169.883C912.508 169.352 913.512 169.086 914.668 169.086C916.09 169.086 917.27 169.512 918.207 170.363C919.152 171.215 919.656 172.32 919.719 173.68H917.668C917.605 172.859 917.293 172.188 916.73 171.664C916.176 171.133 915.488 170.867 914.668 170.867C913.566 170.867 912.711 171.266 912.102 172.062C911.5 172.852 911.199 173.996 911.199 175.496V175.906C911.199 177.367 911.5 178.492 912.102 179.281C912.703 180.07 913.562 180.465 914.68 180.465ZM921.582 175.543C921.582 174.301 921.824 173.184 922.309 172.191C922.801 171.199 923.48 170.434 924.348 169.895C925.223 169.355 926.219 169.086 927.336 169.086C929.062 169.086 930.457 169.684 931.52 170.879C932.59 172.074 933.125 173.664 933.125 175.648V175.801C933.125 177.035 932.887 178.145 932.41 179.129C931.941 180.105 931.266 180.867 930.383 181.414C929.508 181.961 928.5 182.234 927.359 182.234C925.641 182.234 924.246 181.637 923.176 180.441C922.113 179.246 921.582 177.664 921.582 175.695V175.543ZM923.762 175.801C923.762 177.207 924.086 178.336 924.734 179.188C925.391 180.039 926.266 180.465 927.359 180.465C928.461 180.465 929.336 180.035 929.984 179.176C930.633 178.309 930.957 177.098 930.957 175.543C930.957 174.152 930.625 173.027 929.961 172.168C929.305 171.301 928.43 170.867 927.336 170.867C926.266 170.867 925.402 171.293 924.746 172.145C924.09 172.996 923.762 174.215 923.762 175.801ZM937.895 169.32L937.965 170.914C938.934 169.695 940.199 169.086 941.762 169.086C944.441 169.086 945.793 170.598 945.816 173.621V182H943.648V173.609C943.641 172.695 943.43 172.02 943.016 171.582C942.609 171.145 941.973 170.926 941.105 170.926C940.402 170.926 939.785 171.113 939.254 171.488C938.723 171.863 938.309 172.355 938.012 172.965V182H935.844V169.32H937.895ZM952.027 166.25V169.32H954.395V170.996H952.027V178.859C952.027 179.367 952.133 179.75 952.344 180.008C952.555 180.258 952.914 180.383 953.422 180.383C953.672 180.383 954.016 180.336 954.453 180.242V182C953.883 182.156 953.328 182.234 952.789 182.234C951.82 182.234 951.09 181.941 950.598 181.355C950.105 180.77 949.859 179.938 949.859 178.859V170.996H947.551V169.32H949.859V166.25H952.027ZM964.766 182C964.641 181.75 964.539 181.305 964.461 180.664C963.453 181.711 962.25 182.234 960.852 182.234C959.602 182.234 958.574 181.883 957.77 181.18C956.973 180.469 956.574 179.57 956.574 178.484C956.574 177.164 957.074 176.141 958.074 175.414C959.082 174.68 960.496 174.312 962.316 174.312H964.426V173.316C964.426 172.559 964.199 171.957 963.746 171.512C963.293 171.059 962.625 170.832 961.742 170.832C960.969 170.832 960.32 171.027 959.797 171.418C959.273 171.809 959.012 172.281 959.012 172.836H956.832C956.832 172.203 957.055 171.594 957.5 171.008C957.953 170.414 958.562 169.945 959.328 169.602C960.102 169.258 960.949 169.086 961.871 169.086C963.332 169.086 964.477 169.453 965.305 170.188C966.133 170.914 966.562 171.918 966.594 173.199V179.035C966.594 180.199 966.742 181.125 967.039 181.812V182H964.766ZM961.168 180.348C961.848 180.348 962.492 180.172 963.102 179.82C963.711 179.469 964.152 179.012 964.426 178.449V175.848H962.727C960.07 175.848 958.742 176.625 958.742 178.18C958.742 178.859 958.969 179.391 959.422 179.773C959.875 180.156 960.457 180.348 961.168 180.348ZM983.773 180.746C982.93 181.738 981.691 182.234 980.059 182.234C978.707 182.234 977.676 181.844 976.965 181.062C976.262 180.273 975.906 179.109 975.898 177.57V169.32H978.066V177.512C978.066 179.434 978.848 180.395 980.41 180.395C982.066 180.395 983.168 179.777 983.715 178.543V169.32H985.883V182H983.82L983.773 180.746ZM992.129 166.25V169.32H994.496V170.996H992.129V178.859C992.129 179.367 992.234 179.75 992.445 180.008C992.656 180.258 993.016 180.383 993.523 180.383C993.773 180.383 994.117 180.336 994.555 180.242V182C993.984 182.156 993.43 182.234 992.891 182.234C991.922 182.234 991.191 181.941 990.699 181.355C990.207 180.77 989.961 179.938 989.961 178.859V170.996H987.652V169.32H989.961V166.25H992.129ZM999.395 182H997.227V169.32H999.395V182ZM997.051 165.957C997.051 165.605 997.156 165.309 997.367 165.066C997.586 164.824 997.906 164.703 998.328 164.703C998.75 164.703 999.07 164.824 999.289 165.066C999.508 165.309 999.617 165.605 999.617 165.957C999.617 166.309 999.508 166.602 999.289 166.836C999.07 167.07 998.75 167.188 998.328 167.188C997.906 167.188 997.586 167.07 997.367 166.836C997.156 166.602 997.051 166.309 997.051 165.957ZM1005.23 182H1003.06V164H1005.23V182ZM1011.07 182H1008.9V169.32H1011.07V182ZM1008.72 165.957C1008.72 165.605 1008.83 165.309 1009.04 165.066C1009.26 164.824 1009.58 164.703 1010 164.703C1010.42 164.703 1010.74 164.824 1010.96 165.066C1011.18 165.309 1011.29 165.605 1011.29 165.957C1011.29 166.309 1011.18 166.602 1010.96 166.836C1010.74 167.07 1010.42 167.188 1010 167.188C1009.58 167.188 1009.26 167.07 1009.04 166.836C1008.83 166.602 1008.72 166.309 1008.72 165.957ZM1016.59 180.23H1024V182H1013.94V180.406L1020.93 171.113H1014.04V169.32H1023.65V170.855L1016.59 180.23ZM1034.28 182C1034.16 181.75 1034.05 181.305 1033.98 180.664C1032.97 181.711 1031.77 182.234 1030.37 182.234C1029.12 182.234 1028.09 181.883 1027.29 181.18C1026.49 180.469 1026.09 179.57 1026.09 178.484C1026.09 177.164 1026.59 176.141 1027.59 175.414C1028.6 174.68 1030.01 174.312 1031.83 174.312H1033.94V173.316C1033.94 172.559 1033.71 171.957 1033.26 171.512C1032.81 171.059 1032.14 170.832 1031.26 170.832C1030.48 170.832 1029.84 171.027 1029.31 171.418C1028.79 171.809 1028.53 172.281 1028.53 172.836H1026.35C1026.35 172.203 1026.57 171.594 1027.02 171.008C1027.47 170.414 1028.08 169.945 1028.84 169.602C1029.62 169.258 1030.46 169.086 1031.39 169.086C1032.85 169.086 1033.99 169.453 1034.82 170.188C1035.65 170.914 1036.08 171.918 1036.11 173.199V179.035C1036.11 180.199 1036.26 181.125 1036.55 181.812V182H1034.28ZM1030.68 180.348C1031.36 180.348 1032.01 180.172 1032.62 179.82C1033.23 179.469 1033.67 179.012 1033.94 178.449V175.848H1032.24C1029.59 175.848 1028.26 176.625 1028.26 178.18C1028.26 178.859 1028.48 179.391 1028.94 179.773C1029.39 180.156 1029.97 180.348 1030.68 180.348ZM1041.56 169.32L1041.63 170.914C1042.6 169.695 1043.86 169.086 1045.43 169.086C1048.11 169.086 1049.46 170.598 1049.48 173.621V182H1047.31V173.609C1047.3 172.695 1047.09 172.02 1046.68 171.582C1046.27 171.145 1045.64 170.926 1044.77 170.926C1044.07 170.926 1043.45 171.113 1042.92 171.488C1042.39 171.863 1041.97 172.355 1041.68 172.965V182H1039.51V169.32H1041.56ZM1052.22 175.555C1052.22 173.609 1052.68 172.047 1053.61 170.867C1054.53 169.68 1055.73 169.086 1057.23 169.086C1058.71 169.086 1059.89 169.594 1060.75 170.609V164H1062.92V182H1060.93L1060.82 180.641C1059.96 181.703 1058.75 182.234 1057.2 182.234C1055.73 182.234 1054.54 181.633 1053.61 180.43C1052.68 179.227 1052.22 177.656 1052.22 175.719V175.555ZM1054.39 175.801C1054.39 177.238 1054.69 178.363 1055.28 179.176C1055.88 179.988 1056.7 180.395 1057.74 180.395C1059.12 180.395 1060.12 179.777 1060.75 178.543V172.719C1060.11 171.523 1059.11 170.926 1057.77 170.926C1056.7 170.926 1055.88 171.336 1055.28 172.156C1054.69 172.977 1054.39 174.191 1054.39 175.801ZM1065.72 175.543C1065.72 174.301 1065.96 173.184 1066.45 172.191C1066.94 171.199 1067.62 170.434 1068.49 169.895C1069.36 169.355 1070.36 169.086 1071.48 169.086C1073.2 169.086 1074.6 169.684 1075.66 170.879C1076.73 172.074 1077.27 173.664 1077.27 175.648V175.801C1077.27 177.035 1077.03 178.145 1076.55 179.129C1076.08 180.105 1075.41 180.867 1074.52 181.414C1073.65 181.961 1072.64 182.234 1071.5 182.234C1069.78 182.234 1068.39 181.637 1067.32 180.441C1066.25 179.246 1065.72 177.664 1065.72 175.695V175.543ZM1067.9 175.801C1067.9 177.207 1068.23 178.336 1068.88 179.188C1069.53 180.039 1070.41 180.465 1071.5 180.465C1072.6 180.465 1073.48 180.035 1074.12 179.176C1074.77 178.309 1075.1 177.098 1075.1 175.543C1075.1 174.152 1074.77 173.027 1074.1 172.168C1073.45 171.301 1072.57 170.867 1071.48 170.867C1070.41 170.867 1069.54 171.293 1068.89 172.145C1068.23 172.996 1067.9 174.215 1067.9 175.801ZM710.023 206.637C710.023 206.051 709.801 205.598 709.355 205.277C708.918 204.949 708.148 204.668 707.047 204.434C705.953 204.199 705.082 203.918 704.434 203.59C703.793 203.262 703.316 202.871 703.004 202.418C702.699 201.965 702.547 201.426 702.547 200.801C702.547 199.762 702.984 198.883 703.859 198.164C704.742 197.445 705.867 197.086 707.234 197.086C708.672 197.086 709.836 197.457 710.727 198.199C711.625 198.941 712.074 199.891 712.074 201.047H709.895C709.895 200.453 709.641 199.941 709.133 199.512C708.633 199.082 708 198.867 707.234 198.867C706.445 198.867 705.828 199.039 705.383 199.383C704.938 199.727 704.715 200.176 704.715 200.73C704.715 201.254 704.922 201.648 705.336 201.914C705.75 202.18 706.496 202.434 707.574 202.676C708.66 202.918 709.539 203.207 710.211 203.543C710.883 203.879 711.379 204.285 711.699 204.762C712.027 205.23 712.191 205.805 712.191 206.484C712.191 207.617 711.738 208.527 710.832 209.215C709.926 209.895 708.75 210.234 707.305 210.234C706.289 210.234 705.391 210.055 704.609 209.695C703.828 209.336 703.215 208.836 702.77 208.195C702.332 207.547 702.113 206.848 702.113 206.098H704.281C704.32 206.824 704.609 207.402 705.148 207.832C705.695 208.254 706.414 208.465 707.305 208.465C708.125 208.465 708.781 208.301 709.273 207.973C709.773 207.637 710.023 207.191 710.023 206.637ZM722.844 208.746C722 209.738 720.762 210.234 719.129 210.234C717.777 210.234 716.746 209.844 716.035 209.062C715.332 208.273 714.977 207.109 714.969 205.57V197.32H717.137V205.512C717.137 207.434 717.918 208.395 719.48 208.395C721.137 208.395 722.238 207.777 722.785 206.543V197.32H724.953V210H722.891L722.844 208.746ZM736.086 210C735.961 209.75 735.859 209.305 735.781 208.664C734.773 209.711 733.57 210.234 732.172 210.234C730.922 210.234 729.895 209.883 729.09 209.18C728.293 208.469 727.895 207.57 727.895 206.484C727.895 205.164 728.395 204.141 729.395 203.414C730.402 202.68 731.816 202.312 733.637 202.312H735.746V201.316C735.746 200.559 735.52 199.957 735.066 199.512C734.613 199.059 733.945 198.832 733.062 198.832C732.289 198.832 731.641 199.027 731.117 199.418C730.594 199.809 730.332 200.281 730.332 200.836H728.152C728.152 200.203 728.375 199.594 728.82 199.008C729.273 198.414 729.883 197.945 730.648 197.602C731.422 197.258 732.27 197.086 733.191 197.086C734.652 197.086 735.797 197.453 736.625 198.188C737.453 198.914 737.883 199.918 737.914 201.199V207.035C737.914 208.199 738.062 209.125 738.359 209.812V210H736.086ZM732.488 208.348C733.168 208.348 733.812 208.172 734.422 207.82C735.031 207.469 735.473 207.012 735.746 206.449V203.848H734.047C731.391 203.848 730.062 204.625 730.062 206.18C730.062 206.859 730.289 207.391 730.742 207.773C731.195 208.156 731.777 208.348 732.488 208.348ZM752.352 208.465C753.125 208.465 753.801 208.23 754.379 207.762C754.957 207.293 755.277 206.707 755.34 206.004H757.391C757.352 206.73 757.102 207.422 756.641 208.078C756.18 208.734 755.562 209.258 754.789 209.648C754.023 210.039 753.211 210.234 752.352 210.234C750.625 210.234 749.25 209.66 748.227 208.512C747.211 207.355 746.703 205.777 746.703 203.777V203.414C746.703 202.18 746.93 201.082 747.383 200.121C747.836 199.16 748.484 198.414 749.328 197.883C750.18 197.352 751.184 197.086 752.34 197.086C753.762 197.086 754.941 197.512 755.879 198.363C756.824 199.215 757.328 200.32 757.391 201.68H755.34C755.277 200.859 754.965 200.188 754.402 199.664C753.848 199.133 753.16 198.867 752.34 198.867C751.238 198.867 750.383 199.266 749.773 200.062C749.172 200.852 748.871 201.996 748.871 203.496V203.906C748.871 205.367 749.172 206.492 749.773 207.281C750.375 208.07 751.234 208.465 752.352 208.465ZM759.254 203.543C759.254 202.301 759.496 201.184 759.98 200.191C760.473 199.199 761.152 198.434 762.02 197.895C762.895 197.355 763.891 197.086 765.008 197.086C766.734 197.086 768.129 197.684 769.191 198.879C770.262 200.074 770.797 201.664 770.797 203.648V203.801C770.797 205.035 770.559 206.145 770.082 207.129C769.613 208.105 768.938 208.867 768.055 209.414C767.18 209.961 766.172 210.234 765.031 210.234C763.312 210.234 761.918 209.637 760.848 208.441C759.785 207.246 759.254 205.664 759.254 203.695V203.543ZM761.434 203.801C761.434 205.207 761.758 206.336 762.406 207.188C763.062 208.039 763.938 208.465 765.031 208.465C766.133 208.465 767.008 208.035 767.656 207.176C768.305 206.309 768.629 205.098 768.629 203.543C768.629 202.152 768.297 201.027 767.633 200.168C766.977 199.301 766.102 198.867 765.008 198.867C763.938 198.867 763.074 199.293 762.418 200.145C761.762 200.996 761.434 202.215 761.434 203.801ZM775.566 197.32L775.637 198.914C776.605 197.695 777.871 197.086 779.434 197.086C782.113 197.086 783.465 198.598 783.488 201.621V210H781.32V201.609C781.312 200.695 781.102 200.02 780.688 199.582C780.281 199.145 779.645 198.926 778.777 198.926C778.074 198.926 777.457 199.113 776.926 199.488C776.395 199.863 775.98 200.355 775.684 200.965V210H773.516V197.32H775.566ZM789.699 194.25V197.32H792.066V198.996H789.699V206.859C789.699 207.367 789.805 207.75 790.016 208.008C790.227 208.258 790.586 208.383 791.094 208.383C791.344 208.383 791.688 208.336 792.125 208.242V210C791.555 210.156 791 210.234 790.461 210.234C789.492 210.234 788.762 209.941 788.27 209.355C787.777 208.77 787.531 207.938 787.531 206.859V198.996H785.223V197.32H787.531V194.25H789.699ZM802.438 210C802.312 209.75 802.211 209.305 802.133 208.664C801.125 209.711 799.922 210.234 798.523 210.234C797.273 210.234 796.246 209.883 795.441 209.18C794.645 208.469 794.246 207.57 794.246 206.484C794.246 205.164 794.746 204.141 795.746 203.414C796.754 202.68 798.168 202.312 799.988 202.312H802.098V201.316C802.098 200.559 801.871 199.957 801.418 199.512C800.965 199.059 800.297 198.832 799.414 198.832C798.641 198.832 797.992 199.027 797.469 199.418C796.945 199.809 796.684 200.281 796.684 200.836H794.504C794.504 200.203 794.727 199.594 795.172 199.008C795.625 198.414 796.234 197.945 797 197.602C797.773 197.258 798.621 197.086 799.543 197.086C801.004 197.086 802.148 197.453 802.977 198.188C803.805 198.914 804.234 199.918 804.266 201.199V207.035C804.266 208.199 804.414 209.125 804.711 209.812V210H802.438ZM798.84 208.348C799.52 208.348 800.164 208.172 800.773 207.82C801.383 207.469 801.824 207.012 802.098 206.449V203.848H800.398C797.742 203.848 796.414 204.625 796.414 206.18C796.414 206.859 796.641 207.391 797.094 207.773C797.547 208.156 798.129 208.348 798.84 208.348ZM818.984 202.395C817.055 201.84 815.648 201.16 814.766 200.355C813.891 199.543 813.453 198.543 813.453 197.355C813.453 196.012 813.988 194.902 815.059 194.027C816.137 193.145 817.535 192.703 819.254 192.703C820.426 192.703 821.469 192.93 822.383 193.383C823.305 193.836 824.016 194.461 824.516 195.258C825.023 196.055 825.277 196.926 825.277 197.871H823.016C823.016 196.84 822.688 196.031 822.031 195.445C821.375 194.852 820.449 194.555 819.254 194.555C818.145 194.555 817.277 194.801 816.652 195.293C816.035 195.777 815.727 196.453 815.727 197.32C815.727 198.016 816.02 198.605 816.605 199.09C817.199 199.566 818.203 200.004 819.617 200.402C821.039 200.801 822.148 201.242 822.945 201.727C823.75 202.203 824.344 202.762 824.727 203.402C825.117 204.043 825.312 204.797 825.312 205.664C825.312 207.047 824.773 208.156 823.695 208.992C822.617 209.82 821.176 210.234 819.371 210.234C818.199 210.234 817.105 210.012 816.09 209.566C815.074 209.113 814.289 208.496 813.734 207.715C813.188 206.934 812.914 206.047 812.914 205.055H815.176C815.176 206.086 815.555 206.902 816.312 207.504C817.078 208.098 818.098 208.395 819.371 208.395C820.559 208.395 821.469 208.152 822.102 207.668C822.734 207.184 823.051 206.523 823.051 205.688C823.051 204.852 822.758 204.207 822.172 203.754C821.586 203.293 820.523 202.84 818.984 202.395ZM830.035 198.855C830.996 197.676 832.246 197.086 833.785 197.086C836.465 197.086 837.816 198.598 837.84 201.621V210H835.672V201.609C835.664 200.695 835.453 200.02 835.039 199.582C834.633 199.145 833.996 198.926 833.129 198.926C832.426 198.926 831.809 199.113 831.277 199.488C830.746 199.863 830.332 200.355 830.035 200.965V210H827.867V192H830.035V198.855ZM840.512 203.543C840.512 202.301 840.754 201.184 841.238 200.191C841.73 199.199 842.41 198.434 843.277 197.895C844.152 197.355 845.148 197.086 846.266 197.086C847.992 197.086 849.387 197.684 850.449 198.879C851.52 200.074 852.055 201.664 852.055 203.648V203.801C852.055 205.035 851.816 206.145 851.34 207.129C850.871 208.105 850.195 208.867 849.312 209.414C848.438 209.961 847.43 210.234 846.289 210.234C844.57 210.234 843.176 209.637 842.105 208.441C841.043 207.246 840.512 205.664 840.512 203.695V203.543ZM842.691 203.801C842.691 205.207 843.016 206.336 843.664 207.188C844.32 208.039 845.195 208.465 846.289 208.465C847.391 208.465 848.266 208.035 848.914 207.176C849.562 206.309 849.887 205.098 849.887 203.543C849.887 202.152 849.555 201.027 848.891 200.168C848.234 199.301 847.359 198.867 846.266 198.867C845.195 198.867 844.332 199.293 843.676 200.145C843.02 200.996 842.691 202.215 842.691 203.801ZM865.484 203.801C865.484 205.73 865.043 207.285 864.16 208.465C863.277 209.645 862.082 210.234 860.574 210.234C859.035 210.234 857.824 209.746 856.941 208.77V214.875H854.773V197.32H856.754L856.859 198.727C857.742 197.633 858.969 197.086 860.539 197.086C862.062 197.086 863.266 197.66 864.148 198.809C865.039 199.957 865.484 201.555 865.484 203.602V203.801ZM863.316 203.555C863.316 202.125 863.012 200.996 862.402 200.168C861.793 199.34 860.957 198.926 859.895 198.926C858.582 198.926 857.598 199.508 856.941 200.672V206.73C857.59 207.887 858.582 208.465 859.918 208.465C860.957 208.465 861.781 208.055 862.391 207.234C863.008 206.406 863.316 205.18 863.316 203.555ZM870.605 210H868.438V197.32H870.605V210ZM868.262 193.957C868.262 193.605 868.367 193.309 868.578 193.066C868.797 192.824 869.117 192.703 869.539 192.703C869.961 192.703 870.281 192.824 870.5 193.066C870.719 193.309 870.828 193.605 870.828 193.957C870.828 194.309 870.719 194.602 870.5 194.836C870.281 195.07 869.961 195.188 869.539 195.188C869.117 195.188 868.797 195.07 868.578 194.836C868.367 194.602 868.262 194.309 868.262 193.957ZM875.152 210V198.996H873.148V197.32H875.152V196.02C875.152 194.66 875.516 193.609 876.242 192.867C876.969 192.125 877.996 191.754 879.324 191.754C879.824 191.754 880.32 191.82 880.812 191.953L880.695 193.711C880.328 193.641 879.938 193.605 879.523 193.605C878.82 193.605 878.277 193.812 877.895 194.227C877.512 194.633 877.32 195.219 877.32 195.984V197.32H880.027V198.996H877.32V210H875.152ZM886.578 206.824L889.531 197.32H891.852L886.754 211.957C885.965 214.066 884.711 215.121 882.992 215.121L882.582 215.086L881.773 214.934V213.176L882.359 213.223C883.094 213.223 883.664 213.074 884.07 212.777C884.484 212.48 884.824 211.938 885.09 211.148L885.57 209.859L881.047 197.32H883.414L886.578 206.824Z" fill="black"/>
<rect x="701" y="229" width="380" height="67" rx="15" fill="#C4C4C4"/>
<rect x="701" y="313" width="380" height="67" rx="15" fill="#C4C4C4"/>
<rect x="701" y="430" width="380" height="67" rx="15" fill="#323232"/>
<path d="M739.719 261.085H734.173V265.62H740.615V267H732.485V254.203H740.527V255.592H734.173V259.705H739.719V261.085ZM743.99 257.49L744.034 258.545C744.731 257.725 745.672 257.314 746.855 257.314C748.186 257.314 749.091 257.824 749.571 258.844C749.888 258.387 750.298 258.018 750.802 257.736C751.312 257.455 751.912 257.314 752.604 257.314C754.689 257.314 755.75 258.419 755.785 260.628V267H754.159V260.725C754.159 260.045 754.004 259.538 753.693 259.204C753.383 258.864 752.861 258.694 752.129 258.694C751.525 258.694 751.024 258.876 750.626 259.239C750.228 259.597 749.996 260.08 749.932 260.689V267H748.297V260.769C748.297 259.386 747.62 258.694 746.267 258.694C745.2 258.694 744.471 259.148 744.078 260.057V267H742.452V257.49H743.99ZM764.117 267C764.023 266.812 763.947 266.479 763.889 265.998C763.133 266.783 762.23 267.176 761.182 267.176C760.244 267.176 759.474 266.912 758.87 266.385C758.272 265.852 757.974 265.178 757.974 264.363C757.974 263.373 758.349 262.605 759.099 262.061C759.854 261.51 760.915 261.234 762.28 261.234H763.862V260.487C763.862 259.919 763.692 259.468 763.353 259.134C763.013 258.794 762.512 258.624 761.85 258.624C761.27 258.624 760.783 258.771 760.391 259.063C759.998 259.356 759.802 259.711 759.802 260.127H758.167C758.167 259.652 758.334 259.195 758.668 258.756C759.008 258.311 759.465 257.959 760.039 257.701C760.619 257.443 761.255 257.314 761.946 257.314C763.042 257.314 763.9 257.59 764.521 258.141C765.143 258.686 765.465 259.438 765.488 260.399V264.776C765.488 265.649 765.6 266.344 765.822 266.859V267H764.117ZM761.419 265.761C761.929 265.761 762.412 265.629 762.869 265.365C763.326 265.102 763.657 264.759 763.862 264.337V262.386H762.588C760.596 262.386 759.6 262.969 759.6 264.135C759.6 264.645 759.77 265.043 760.109 265.33C760.449 265.617 760.886 265.761 761.419 265.761ZM769.804 267H768.178V257.49H769.804V267ZM768.046 254.968C768.046 254.704 768.125 254.481 768.283 254.3C768.447 254.118 768.688 254.027 769.004 254.027C769.32 254.027 769.561 254.118 769.725 254.3C769.889 254.481 769.971 254.704 769.971 254.968C769.971 255.231 769.889 255.451 769.725 255.627C769.561 255.803 769.32 255.891 769.004 255.891C768.688 255.891 768.447 255.803 768.283 255.627C768.125 255.451 768.046 255.231 768.046 254.968ZM774.181 267H772.555V253.5H774.181V267Z" fill="black"/>
<path d="M736.256 347.296C734.809 346.88 733.754 346.37 733.092 345.767C732.436 345.157 732.107 344.407 732.107 343.517C732.107 342.509 732.509 341.677 733.312 341.021C734.12 340.358 735.169 340.027 736.458 340.027C737.337 340.027 738.119 340.197 738.805 340.537C739.496 340.877 740.029 341.346 740.404 341.943C740.785 342.541 740.976 343.194 740.976 343.903H739.279C739.279 343.13 739.033 342.523 738.541 342.084C738.049 341.639 737.354 341.416 736.458 341.416C735.626 341.416 734.976 341.601 734.507 341.97C734.044 342.333 733.812 342.84 733.812 343.49C733.812 344.012 734.032 344.454 734.472 344.817C734.917 345.175 735.67 345.503 736.73 345.802C737.797 346.101 738.629 346.432 739.227 346.795C739.83 347.152 740.275 347.571 740.562 348.052C740.855 348.532 741.002 349.098 741.002 349.748C741.002 350.785 740.598 351.617 739.789 352.244C738.98 352.865 737.899 353.176 736.546 353.176C735.667 353.176 734.847 353.009 734.085 352.675C733.323 352.335 732.734 351.872 732.318 351.286C731.908 350.7 731.703 350.035 731.703 349.291H733.399C733.399 350.064 733.684 350.677 734.252 351.128C734.826 351.573 735.591 351.796 736.546 351.796C737.437 351.796 738.119 351.614 738.594 351.251C739.068 350.888 739.306 350.393 739.306 349.766C739.306 349.139 739.086 348.655 738.646 348.315C738.207 347.97 737.41 347.63 736.256 347.296ZM746.864 353.176C745.575 353.176 744.526 352.754 743.718 351.91C742.909 351.061 742.505 349.927 742.505 348.509V348.21C742.505 347.267 742.684 346.426 743.041 345.688C743.404 344.943 743.908 344.363 744.553 343.947C745.203 343.525 745.906 343.314 746.662 343.314C747.898 343.314 748.859 343.722 749.545 344.536C750.23 345.351 750.573 346.517 750.573 348.034V348.711H744.131C744.154 349.648 744.427 350.407 744.948 350.987C745.476 351.562 746.144 351.849 746.952 351.849C747.526 351.849 748.013 351.731 748.411 351.497C748.81 351.263 749.158 350.952 749.457 350.565L750.45 351.339C749.653 352.563 748.458 353.176 746.864 353.176ZM746.662 344.65C746.006 344.65 745.455 344.891 745.01 345.371C744.564 345.846 744.289 346.514 744.184 347.375H748.947V347.252C748.9 346.426 748.678 345.787 748.279 345.336C747.881 344.879 747.342 344.65 746.662 344.65ZM754.001 343.49L754.054 344.686C754.78 343.771 755.729 343.314 756.901 343.314C758.911 343.314 759.925 344.448 759.942 346.716V353H758.316V346.707C758.311 346.021 758.152 345.515 757.842 345.187C757.537 344.858 757.06 344.694 756.409 344.694C755.882 344.694 755.419 344.835 755.021 345.116C754.622 345.397 754.312 345.767 754.089 346.224V353H752.463V343.49H754.001ZM764.021 344.642C764.741 343.757 765.679 343.314 766.833 343.314C768.843 343.314 769.856 344.448 769.874 346.716V353H768.248V346.707C768.242 346.021 768.084 345.515 767.773 345.187C767.469 344.858 766.991 344.694 766.341 344.694C765.813 344.694 765.351 344.835 764.952 345.116C764.554 345.397 764.243 345.767 764.021 346.224V353H762.395V339.5H764.021V344.642ZM778.18 353C778.086 352.812 778.01 352.479 777.951 351.998C777.195 352.783 776.293 353.176 775.244 353.176C774.307 353.176 773.536 352.912 772.933 352.385C772.335 351.852 772.036 351.178 772.036 350.363C772.036 349.373 772.411 348.605 773.161 348.061C773.917 347.51 774.978 347.234 776.343 347.234H777.925V346.487C777.925 345.919 777.755 345.468 777.415 345.134C777.075 344.794 776.574 344.624 775.912 344.624C775.332 344.624 774.846 344.771 774.453 345.063C774.061 345.356 773.864 345.711 773.864 346.127H772.229C772.229 345.652 772.396 345.195 772.73 344.756C773.07 344.311 773.527 343.959 774.102 343.701C774.682 343.443 775.317 343.314 776.009 343.314C777.104 343.314 777.963 343.59 778.584 344.141C779.205 344.686 779.527 345.438 779.551 346.399V350.776C779.551 351.649 779.662 352.344 779.885 352.859V353H778.18ZM775.481 351.761C775.991 351.761 776.475 351.629 776.932 351.365C777.389 351.102 777.72 350.759 777.925 350.337V348.386H776.65C774.658 348.386 773.662 348.969 773.662 350.135C773.662 350.645 773.832 351.043 774.172 351.33C774.512 351.617 774.948 351.761 775.481 351.761Z" fill="black"/>
<path d="M729.719 399.085H724.173V403.62H730.615V405H722.485V392.203H730.527V393.592H724.173V397.705H729.719V399.085ZM737.998 402.478C737.998 402.038 737.831 401.698 737.497 401.458C737.169 401.212 736.592 401.001 735.766 400.825C734.945 400.649 734.292 400.438 733.806 400.192C733.325 399.946 732.968 399.653 732.733 399.313C732.505 398.974 732.391 398.569 732.391 398.101C732.391 397.321 732.719 396.662 733.375 396.123C734.037 395.584 734.881 395.314 735.906 395.314C736.984 395.314 737.857 395.593 738.525 396.149C739.199 396.706 739.536 397.418 739.536 398.285H737.901C737.901 397.84 737.711 397.456 737.33 397.134C736.955 396.812 736.48 396.65 735.906 396.65C735.314 396.65 734.852 396.779 734.518 397.037C734.184 397.295 734.017 397.632 734.017 398.048C734.017 398.44 734.172 398.736 734.482 398.936C734.793 399.135 735.353 399.325 736.161 399.507C736.976 399.688 737.635 399.905 738.139 400.157C738.643 400.409 739.015 400.714 739.255 401.071C739.501 401.423 739.624 401.854 739.624 402.363C739.624 403.213 739.284 403.896 738.604 404.411C737.925 404.921 737.043 405.176 735.959 405.176C735.197 405.176 734.523 405.041 733.938 404.771C733.352 404.502 732.892 404.127 732.558 403.646C732.229 403.16 732.065 402.636 732.065 402.073H733.691C733.721 402.618 733.938 403.052 734.342 403.374C734.752 403.69 735.291 403.849 735.959 403.849C736.574 403.849 737.066 403.726 737.436 403.479C737.811 403.228 737.998 402.894 737.998 402.478ZM741.347 400.166C741.347 398.672 741.689 397.491 742.375 396.624C743.061 395.751 743.98 395.314 745.135 395.314C746.26 395.314 747.147 395.692 747.798 396.448L747.868 395.49H749.362V408.656H747.736V404.121C747.08 404.824 746.207 405.176 745.117 405.176C743.969 405.176 743.052 404.73 742.366 403.84C741.687 402.943 741.347 401.757 741.347 400.28V400.166ZM742.973 400.351C742.973 401.44 743.201 402.296 743.658 402.917C744.121 403.538 744.742 403.849 745.521 403.849C746.488 403.849 747.227 403.421 747.736 402.565V397.907C747.221 397.069 746.488 396.65 745.539 396.65C744.754 396.65 744.13 396.964 743.667 397.591C743.204 398.212 742.973 399.132 742.973 400.351ZM757.844 404.06C757.211 404.804 756.282 405.176 755.058 405.176C754.044 405.176 753.271 404.883 752.737 404.297C752.21 403.705 751.943 402.832 751.938 401.678V395.49H753.563V401.634C753.563 403.075 754.149 403.796 755.321 403.796C756.563 403.796 757.39 403.333 757.8 402.407V395.49H759.426V405H757.879L757.844 404.06ZM765.851 405.176C764.562 405.176 763.513 404.754 762.704 403.91C761.896 403.061 761.491 401.927 761.491 400.509V400.21C761.491 399.267 761.67 398.426 762.027 397.688C762.391 396.943 762.895 396.363 763.539 395.947C764.189 395.525 764.893 395.314 765.648 395.314C766.885 395.314 767.846 395.722 768.531 396.536C769.217 397.351 769.56 398.517 769.56 400.034V400.711H763.117C763.141 401.648 763.413 402.407 763.935 402.987C764.462 403.562 765.13 403.849 765.938 403.849C766.513 403.849 766.999 403.731 767.397 403.497C767.796 403.263 768.145 402.952 768.443 402.565L769.437 403.339C768.64 404.563 767.444 405.176 765.851 405.176ZM765.648 396.65C764.992 396.65 764.441 396.891 763.996 397.371C763.551 397.846 763.275 398.514 763.17 399.375H767.934V399.252C767.887 398.426 767.664 397.787 767.266 397.336C766.867 396.879 766.328 396.65 765.648 396.65ZM775.264 403.849C775.844 403.849 776.351 403.673 776.784 403.321C777.218 402.97 777.458 402.53 777.505 402.003H779.043C779.014 402.548 778.826 403.066 778.48 403.559C778.135 404.051 777.672 404.443 777.092 404.736C776.518 405.029 775.908 405.176 775.264 405.176C773.969 405.176 772.938 404.745 772.17 403.884C771.408 403.017 771.027 401.833 771.027 400.333V400.061C771.027 399.135 771.197 398.312 771.537 397.591C771.877 396.87 772.363 396.311 772.996 395.912C773.635 395.514 774.388 395.314 775.255 395.314C776.321 395.314 777.206 395.634 777.909 396.272C778.618 396.911 778.996 397.74 779.043 398.76H777.505C777.458 398.145 777.224 397.641 776.802 397.248C776.386 396.85 775.87 396.65 775.255 396.65C774.429 396.65 773.787 396.949 773.33 397.547C772.879 398.139 772.653 398.997 772.653 400.122V400.43C772.653 401.525 772.879 402.369 773.33 402.961C773.781 403.553 774.426 403.849 775.264 403.849ZM782.638 405H781.012V395.49H782.638V405ZM780.88 392.968C780.88 392.704 780.959 392.481 781.117 392.3C781.281 392.118 781.521 392.027 781.838 392.027C782.154 392.027 782.395 392.118 782.559 392.3C782.723 392.481 782.805 392.704 782.805 392.968C782.805 393.231 782.723 393.451 782.559 393.627C782.395 393.803 782.154 393.891 781.838 393.891C781.521 393.891 781.281 393.803 781.117 393.627C780.959 393.451 780.88 393.231 780.88 392.968ZM791.242 395.49L791.286 396.545C791.983 395.725 792.924 395.314 794.107 395.314C795.438 395.314 796.343 395.824 796.823 396.844C797.14 396.387 797.55 396.018 798.054 395.736C798.563 395.455 799.164 395.314 799.855 395.314C801.941 395.314 803.002 396.419 803.037 398.628V405H801.411V398.725C801.411 398.045 801.256 397.538 800.945 397.204C800.635 396.864 800.113 396.694 799.381 396.694C798.777 396.694 798.276 396.876 797.878 397.239C797.479 397.597 797.248 398.08 797.184 398.689V405H795.549V398.769C795.549 397.386 794.872 396.694 793.519 396.694C792.452 396.694 791.723 397.148 791.33 398.057V405H789.704V395.49H791.242ZM807.265 405H805.639V395.49H807.265V405ZM805.507 392.968C805.507 392.704 805.586 392.481 805.744 392.3C805.908 392.118 806.148 392.027 806.465 392.027C806.781 392.027 807.021 392.118 807.186 392.3C807.35 392.481 807.432 392.704 807.432 392.968C807.432 393.231 807.35 393.451 807.186 393.627C807.021 393.803 806.781 393.891 806.465 393.891C806.148 393.891 805.908 393.803 805.744 393.627C805.586 393.451 805.507 393.231 805.507 392.968ZM811.413 395.49L811.466 396.686C812.192 395.771 813.142 395.314 814.313 395.314C816.323 395.314 817.337 396.448 817.354 398.716V405H815.729V398.707C815.723 398.021 815.564 397.515 815.254 397.187C814.949 396.858 814.472 396.694 813.821 396.694C813.294 396.694 812.831 396.835 812.433 397.116C812.034 397.397 811.724 397.767 811.501 398.224V405H809.875V395.49H811.413ZM821.433 396.642C822.153 395.757 823.091 395.314 824.245 395.314C826.255 395.314 827.269 396.448 827.286 398.716V405H825.66V398.707C825.654 398.021 825.496 397.515 825.186 397.187C824.881 396.858 824.403 396.694 823.753 396.694C823.226 396.694 822.763 396.835 822.364 397.116C821.966 397.397 821.655 397.767 821.433 398.224V405H819.807V391.5H821.433V396.642ZM835.592 405C835.498 404.812 835.422 404.479 835.363 403.998C834.607 404.783 833.705 405.176 832.656 405.176C831.719 405.176 830.948 404.912 830.345 404.385C829.747 403.852 829.448 403.178 829.448 402.363C829.448 401.373 829.823 400.605 830.573 400.061C831.329 399.51 832.39 399.234 833.755 399.234H835.337V398.487C835.337 397.919 835.167 397.468 834.827 397.134C834.487 396.794 833.986 396.624 833.324 396.624C832.744 396.624 832.258 396.771 831.865 397.063C831.473 397.356 831.276 397.711 831.276 398.127H829.642C829.642 397.652 829.809 397.195 830.143 396.756C830.482 396.311 830.939 395.959 831.514 395.701C832.094 395.443 832.729 395.314 833.421 395.314C834.517 395.314 835.375 395.59 835.996 396.141C836.617 396.686 836.939 397.438 836.963 398.399V402.776C836.963 403.649 837.074 404.344 837.297 404.859V405H835.592ZM832.894 403.761C833.403 403.761 833.887 403.629 834.344 403.365C834.801 403.102 835.132 402.759 835.337 402.337V400.386H834.062C832.07 400.386 831.074 400.969 831.074 402.135C831.074 402.645 831.244 403.043 831.584 403.33C831.924 403.617 832.36 403.761 832.894 403.761ZM849.514 402.478C849.514 402.038 849.347 401.698 849.013 401.458C848.685 401.212 848.107 401.001 847.281 400.825C846.461 400.649 845.808 400.438 845.321 400.192C844.841 399.946 844.483 399.653 844.249 399.313C844.021 398.974 843.906 398.569 843.906 398.101C843.906 397.321 844.234 396.662 844.891 396.123C845.553 395.584 846.396 395.314 847.422 395.314C848.5 395.314 849.373 395.593 850.041 396.149C850.715 396.706 851.052 397.418 851.052 398.285H849.417C849.417 397.84 849.227 397.456 848.846 397.134C848.471 396.812 847.996 396.65 847.422 396.65C846.83 396.65 846.367 396.779 846.033 397.037C845.699 397.295 845.532 397.632 845.532 398.048C845.532 398.44 845.688 398.736 845.998 398.936C846.309 399.135 846.868 399.325 847.677 399.507C848.491 399.688 849.15 399.905 849.654 400.157C850.158 400.409 850.53 400.714 850.771 401.071C851.017 401.423 851.14 401.854 851.14 402.363C851.14 403.213 850.8 403.896 850.12 404.411C849.44 404.921 848.559 405.176 847.475 405.176C846.713 405.176 846.039 405.041 845.453 404.771C844.867 404.502 844.407 404.127 844.073 403.646C843.745 403.16 843.581 402.636 843.581 402.073H845.207C845.236 402.618 845.453 403.052 845.857 403.374C846.268 403.69 846.807 403.849 847.475 403.849C848.09 403.849 848.582 403.726 848.951 403.479C849.326 403.228 849.514 402.894 849.514 402.478ZM857.204 405.176C855.915 405.176 854.866 404.754 854.058 403.91C853.249 403.061 852.845 401.927 852.845 400.509V400.21C852.845 399.267 853.023 398.426 853.381 397.688C853.744 396.943 854.248 396.363 854.893 395.947C855.543 395.525 856.246 395.314 857.002 395.314C858.238 395.314 859.199 395.722 859.885 396.536C860.57 397.351 860.913 398.517 860.913 400.034V400.711H854.471C854.494 401.648 854.767 402.407 855.288 402.987C855.815 403.562 856.483 403.849 857.292 403.849C857.866 403.849 858.353 403.731 858.751 403.497C859.149 403.263 859.498 402.952 859.797 402.565L860.79 403.339C859.993 404.563 858.798 405.176 857.204 405.176ZM857.002 396.65C856.346 396.65 855.795 396.891 855.35 397.371C854.904 397.846 854.629 398.514 854.523 399.375H859.287V399.252C859.24 398.426 859.018 397.787 858.619 397.336C858.221 396.879 857.682 396.65 857.002 396.65ZM864.341 395.49L864.394 396.686C865.12 395.771 866.069 395.314 867.241 395.314C869.251 395.314 870.265 396.448 870.282 398.716V405H868.656V398.707C868.65 398.021 868.492 397.515 868.182 397.187C867.877 396.858 867.399 396.694 866.749 396.694C866.222 396.694 865.759 396.835 865.36 397.116C864.962 397.397 864.651 397.767 864.429 398.224V405H862.803V395.49H864.341ZM874.36 396.642C875.081 395.757 876.019 395.314 877.173 395.314C879.183 395.314 880.196 396.448 880.214 398.716V405H878.588V398.707C878.582 398.021 878.424 397.515 878.113 397.187C877.809 396.858 877.331 396.694 876.681 396.694C876.153 396.694 875.69 396.835 875.292 397.116C874.894 397.397 874.583 397.767 874.36 398.224V405H872.734V391.5H874.36V396.642ZM888.52 405C888.426 404.812 888.35 404.479 888.291 403.998C887.535 404.783 886.633 405.176 885.584 405.176C884.646 405.176 883.876 404.912 883.272 404.385C882.675 403.852 882.376 403.178 882.376 402.363C882.376 401.373 882.751 400.605 883.501 400.061C884.257 399.51 885.317 399.234 886.683 399.234H888.265V398.487C888.265 397.919 888.095 397.468 887.755 397.134C887.415 396.794 886.914 396.624 886.252 396.624C885.672 396.624 885.186 396.771 884.793 397.063C884.4 397.356 884.204 397.711 884.204 398.127H882.569C882.569 397.652 882.736 397.195 883.07 396.756C883.41 396.311 883.867 395.959 884.441 395.701C885.021 395.443 885.657 395.314 886.349 395.314C887.444 395.314 888.303 395.59 888.924 396.141C889.545 396.686 889.867 397.438 889.891 398.399V402.776C889.891 403.649 890.002 404.344 890.225 404.859V405H888.52ZM885.821 403.761C886.331 403.761 886.814 403.629 887.271 403.365C887.729 403.102 888.06 402.759 888.265 402.337V400.386H886.99C884.998 400.386 884.002 400.969 884.002 402.135C884.002 402.645 884.172 403.043 884.512 403.33C884.852 403.617 885.288 403.761 885.821 403.761Z" fill="black"/>
<path d="M865.182 468.62H871.246V470H863.485V457.203H865.182V468.62ZM872.485 465.157C872.485 464.226 872.667 463.388 873.03 462.644C873.399 461.899 873.909 461.325 874.56 460.921C875.216 460.517 875.963 460.314 876.801 460.314C878.096 460.314 879.142 460.763 879.938 461.659C880.741 462.556 881.143 463.748 881.143 465.236V465.351C881.143 466.276 880.964 467.108 880.606 467.847C880.255 468.579 879.748 469.15 879.086 469.561C878.43 469.971 877.674 470.176 876.818 470.176C875.529 470.176 874.483 469.728 873.681 468.831C872.884 467.935 872.485 466.748 872.485 465.271V465.157ZM874.12 465.351C874.12 466.405 874.363 467.252 874.85 467.891C875.342 468.529 875.998 468.849 876.818 468.849C877.645 468.849 878.301 468.526 878.787 467.882C879.273 467.231 879.517 466.323 879.517 465.157C879.517 464.114 879.268 463.271 878.77 462.626C878.277 461.976 877.621 461.65 876.801 461.65C875.998 461.65 875.351 461.97 874.858 462.608C874.366 463.247 874.12 464.161 874.12 465.351ZM882.795 465.166C882.795 463.684 883.138 462.506 883.823 461.633C884.509 460.754 885.417 460.314 886.548 460.314C887.708 460.314 888.613 460.725 889.264 461.545L889.343 460.49H890.828V469.771C890.828 471.002 890.462 471.972 889.729 472.681C889.003 473.39 888.024 473.744 886.794 473.744C886.108 473.744 885.438 473.598 884.781 473.305C884.125 473.012 883.624 472.61 883.278 472.101L884.122 471.125C884.819 471.986 885.672 472.417 886.68 472.417C887.471 472.417 888.086 472.194 888.525 471.749C888.971 471.304 889.193 470.677 889.193 469.868V469.051C888.543 469.801 887.655 470.176 886.53 470.176C885.417 470.176 884.515 469.728 883.823 468.831C883.138 467.935 882.795 466.713 882.795 465.166ZM884.43 465.351C884.43 466.423 884.649 467.267 885.089 467.882C885.528 468.491 886.144 468.796 886.935 468.796C887.96 468.796 888.713 468.33 889.193 467.398V463.057C888.695 462.148 887.948 461.694 886.952 461.694C886.161 461.694 885.543 462.002 885.098 462.617C884.652 463.232 884.43 464.144 884.43 465.351ZM895.056 470H893.43V460.49H895.056V470ZM893.298 457.968C893.298 457.704 893.377 457.481 893.535 457.3C893.699 457.118 893.939 457.027 894.256 457.027C894.572 457.027 894.812 457.118 894.977 457.3C895.141 457.481 895.223 457.704 895.223 457.968C895.223 458.231 895.141 458.451 894.977 458.627C894.812 458.803 894.572 458.891 894.256 458.891C893.939 458.891 893.699 458.803 893.535 458.627C893.377 458.451 893.298 458.231 893.298 457.968ZM899.204 460.49L899.257 461.686C899.983 460.771 900.933 460.314 902.104 460.314C904.114 460.314 905.128 461.448 905.146 463.716V470H903.52V463.707C903.514 463.021 903.355 462.515 903.045 462.187C902.74 461.858 902.263 461.694 901.612 461.694C901.085 461.694 900.622 461.835 900.224 462.116C899.825 462.397 899.515 462.767 899.292 463.224V470H897.666V460.49H899.204Z" fill="white"/>
<rect width="605" height="690" fill="white"/>
<path d="M96.1865 65.3169H107.979V68H92.8882V43.1172H96.1865V65.3169ZM129.734 56.3618C129.734 58.8 129.324 60.9305 128.503 62.7534C127.683 64.5649 126.521 65.9492 125.017 66.9062C123.513 67.8633 121.759 68.3418 119.753 68.3418C117.794 68.3418 116.056 67.8633 114.541 66.9062C113.026 65.9378 111.847 64.5649 111.003 62.7876C110.172 60.9989 109.744 58.931 109.722 56.584V54.7896C109.722 52.397 110.138 50.2835 110.969 48.4492C111.801 46.6149 112.974 45.2135 114.49 44.2451C116.016 43.2653 117.76 42.7754 119.719 42.7754C121.713 42.7754 123.468 43.2596 124.983 44.228C126.51 45.1851 127.683 46.5807 128.503 48.415C129.324 50.238 129.734 52.3628 129.734 54.7896V56.3618ZM126.47 54.7554C126.47 51.8045 125.877 49.543 124.692 47.9707C123.507 46.387 121.85 45.5952 119.719 45.5952C117.646 45.5952 116.011 46.387 114.814 47.9707C113.63 49.543 113.02 51.7305 112.986 54.5332V56.3618C112.986 59.2215 113.584 61.4717 114.78 63.1123C115.988 64.7415 117.646 65.5562 119.753 65.5562C121.873 65.5562 123.513 64.7871 124.675 63.249C125.837 61.6995 126.436 59.4836 126.47 56.6011V54.7554ZM153.027 64.7358C152.184 65.9435 151.005 66.8493 149.49 67.4531C147.986 68.0456 146.231 68.3418 144.226 68.3418C142.198 68.3418 140.398 67.869 138.826 66.9233C137.253 65.9663 136.034 64.6105 135.168 62.856C134.314 61.1014 133.875 59.0677 133.853 56.7549V54.5845C133.853 50.8361 134.724 47.9308 136.467 45.8687C138.222 43.8065 140.683 42.7754 143.85 42.7754C146.448 42.7754 148.538 43.4419 150.122 44.7749C151.706 46.0965 152.674 47.9764 153.027 50.4146H149.746C149.131 47.1219 147.171 45.4756 143.867 45.4756C141.668 45.4756 139.999 46.2503 138.86 47.7998C137.732 49.3379 137.162 51.571 137.151 54.499V56.5327C137.151 59.3241 137.789 61.5457 139.065 63.1978C140.341 64.8384 142.067 65.6587 144.243 65.6587C145.474 65.6587 146.55 65.522 147.473 65.2485C148.396 64.9751 149.159 64.5137 149.763 63.8643V58.2759H144.004V55.6099H153.027V64.7358ZM177.654 56.3618C177.654 58.8 177.244 60.9305 176.423 62.7534C175.603 64.5649 174.441 65.9492 172.937 66.9062C171.433 67.8633 169.679 68.3418 167.673 68.3418C165.714 68.3418 163.976 67.8633 162.461 66.9062C160.946 65.9378 159.766 64.5649 158.923 62.7876C158.092 60.9989 157.664 58.931 157.642 56.584V54.7896C157.642 52.397 158.057 50.2835 158.889 48.4492C159.721 46.6149 160.894 45.2135 162.41 44.2451C163.936 43.2653 165.68 42.7754 167.639 42.7754C169.633 42.7754 171.388 43.2596 172.903 44.228C174.43 45.1851 175.603 46.5807 176.423 48.415C177.244 50.238 177.654 52.3628 177.654 54.7896V56.3618ZM174.39 54.7554C174.39 51.8045 173.797 49.543 172.612 47.9707C171.427 46.387 169.77 45.5952 167.639 45.5952C165.566 45.5952 163.931 46.387 162.734 47.9707C161.549 49.543 160.94 51.7305 160.906 54.5332V56.3618C160.906 59.2215 161.504 61.4717 162.7 63.1123C163.908 64.7415 165.566 65.5562 167.673 65.5562C169.792 65.5562 171.433 64.7871 172.595 63.249C173.757 61.6995 174.355 59.4836 174.39 56.6011V54.7554Z" fill="black"/>
<rect x="1226" width="18" height="689" fill="white"/>
<rect x="1226" width="18" height="296" fill="#544545"/>
<path d="M113.592 345H110.217V319.406H113.592V345ZM124.139 319.406L132.506 340.289L140.873 319.406H145.25V345H141.875V335.033L142.191 324.275L133.789 345H131.205L122.82 324.328L123.154 335.033V345H119.779V319.406H124.139ZM165.658 338.32H154.936L152.527 345H149.047L158.82 319.406H161.773L171.564 345H168.102L165.658 338.32ZM155.955 335.543H164.656L160.297 323.572L155.955 335.543ZM193.695 341.643C192.828 342.885 191.615 343.816 190.057 344.438C188.51 345.047 186.705 345.352 184.643 345.352C182.557 345.352 180.705 344.865 179.088 343.893C177.471 342.908 176.217 341.514 175.326 339.709C174.447 337.904 173.996 335.812 173.973 333.434V331.201C173.973 327.346 174.869 324.357 176.662 322.236C178.467 320.115 180.998 319.055 184.256 319.055C186.928 319.055 189.078 319.74 190.707 321.111C192.336 322.471 193.332 324.404 193.695 326.912H190.32C189.688 323.525 187.672 321.832 184.273 321.832C182.012 321.832 180.295 322.629 179.123 324.223C177.963 325.805 177.377 328.102 177.365 331.113V333.205C177.365 336.076 178.021 338.361 179.334 340.061C180.646 341.748 182.422 342.592 184.66 342.592C185.926 342.592 187.033 342.451 187.982 342.17C188.932 341.889 189.717 341.414 190.338 340.746V334.998H184.414V332.256H193.695V341.643ZM213.805 333.17H202.713V342.24H215.598V345H199.338V319.406H215.422V322.184H202.713V330.41H213.805V333.17ZM224.158 319.406L232.525 340.289L240.893 319.406H245.27V345H241.895V335.033L242.211 324.275L233.809 345H231.225L222.84 324.328L223.174 335.033V345H219.799V319.406H224.158ZM260.158 345V319.406H267.383C269.609 319.406 271.578 319.898 273.289 320.883C275 321.867 276.318 323.268 277.244 325.084C278.182 326.9 278.656 328.986 278.668 331.342V332.977C278.668 335.391 278.199 337.506 277.262 339.322C276.336 341.139 275.006 342.533 273.271 343.506C271.549 344.479 269.539 344.977 267.242 345H260.158ZM263.533 322.184V342.24H267.084C269.686 342.24 271.707 341.432 273.148 339.814C274.602 338.197 275.328 335.895 275.328 332.906V331.412C275.328 328.506 274.643 326.25 273.271 324.645C271.912 323.027 269.979 322.207 267.471 322.184H263.533ZM297.529 338.32H286.807L284.398 345H280.918L290.691 319.406H293.645L303.436 345H299.973L297.529 338.32ZM287.826 335.543H296.527L292.168 323.572L287.826 335.543ZM320.17 319.406L328.537 340.289L336.904 319.406H341.281V345H337.906V335.033L338.223 324.275L329.82 345H327.236L318.852 324.328L319.186 335.033V345H315.811V319.406H320.17ZM361.689 338.32H350.967L348.559 345H345.078L354.852 319.406H357.805L367.596 345H364.133L361.689 338.32ZM351.986 335.543H360.688L356.328 323.572L351.986 335.543ZM380.428 334.646H374.416V345H371.023V319.406H379.496C382.379 319.406 384.594 320.062 386.141 321.375C387.699 322.688 388.479 324.598 388.479 327.105C388.479 328.699 388.045 330.088 387.178 331.271C386.322 332.455 385.127 333.34 383.592 333.926L389.604 344.789V345H385.982L380.428 334.646ZM374.416 331.887H379.602C381.277 331.887 382.607 331.453 383.592 330.586C384.588 329.719 385.086 328.559 385.086 327.105C385.086 325.523 384.611 324.311 383.662 323.467C382.725 322.623 381.365 322.195 379.584 322.184H374.416V331.887ZM412.051 336.879C411.734 339.586 410.732 341.678 409.045 343.154C407.369 344.619 405.137 345.352 402.348 345.352C399.324 345.352 396.898 344.268 395.07 342.1C393.254 339.932 392.346 337.031 392.346 333.398V330.938C392.346 328.559 392.768 326.467 393.611 324.662C394.467 322.857 395.674 321.475 397.232 320.514C398.791 319.541 400.596 319.055 402.646 319.055C405.365 319.055 407.545 319.816 409.186 321.34C410.826 322.852 411.781 324.949 412.051 327.633H408.658C408.365 325.594 407.727 324.117 406.742 323.203C405.77 322.289 404.404 321.832 402.646 321.832C400.49 321.832 398.797 322.629 397.566 324.223C396.348 325.816 395.738 328.084 395.738 331.025V333.504C395.738 336.281 396.318 338.49 397.479 340.131C398.639 341.771 400.262 342.592 402.348 342.592C404.223 342.592 405.658 342.17 406.654 341.326C407.662 340.471 408.33 338.988 408.658 336.879H412.051ZM430.807 338.32H420.084L417.676 345H414.195L423.969 319.406H426.922L436.713 345H433.25L430.807 338.32ZM421.104 335.543H429.805L425.445 323.572L421.104 335.543Z" fill="black"/>
<circle cx="48" cy="56" r="22" fill="#C4C4C4"/>
</svg>
