<svg width="1244" height="690" viewBox="0 0 1244 690" fill="none" xmlns="http://www.w3.org/2000/svg">
<rect width="1244" height="689" fill="#C4C4C4"/>
<rect x="9" y="8" width="227" height="673" fill="#C4C4C4"/>
<rect x="638" y="18" width="569" height="658" rx="15" fill="white"/>
<path d="M703.971 157V131.406H712.338C715.115 131.406 717.201 131.98 718.596 133.129C720.002 134.277 720.705 135.977 720.705 138.227C720.705 139.422 720.365 140.482 719.686 141.408C719.006 142.322 718.08 143.031 716.908 143.535C718.291 143.922 719.381 144.66 720.178 145.75C720.986 146.828 721.391 148.117 721.391 149.617C721.391 151.914 720.646 153.719 719.158 155.031C717.67 156.344 715.566 157 712.848 157H703.971ZM707.346 145.029V154.24H712.918C714.488 154.24 715.725 153.836 716.627 153.027C717.541 152.207 717.998 151.082 717.998 149.652C717.998 146.57 716.322 145.029 712.971 145.029H707.346ZM707.346 142.322H712.443C713.92 142.322 715.098 141.953 715.977 141.215C716.867 140.477 717.312 139.475 717.312 138.209C717.312 136.803 716.902 135.783 716.082 135.15C715.262 134.506 714.014 134.184 712.338 134.184H707.346V142.322ZM733.783 157.352C731.205 157.352 729.107 156.508 727.49 154.82C725.873 153.121 725.064 150.854 725.064 148.018V147.42C725.064 145.533 725.422 143.852 726.137 142.375C726.863 140.887 727.871 139.727 729.16 138.895C730.461 138.051 731.867 137.629 733.379 137.629C735.852 137.629 737.773 138.443 739.145 140.072C740.516 141.701 741.201 144.033 741.201 147.068V148.422H728.316C728.363 150.297 728.908 151.814 729.951 152.975C731.006 154.123 732.342 154.697 733.959 154.697C735.107 154.697 736.08 154.463 736.877 153.994C737.674 153.525 738.371 152.904 738.969 152.131L740.955 153.678C739.361 156.127 736.971 157.352 733.783 157.352ZM733.379 140.301C732.066 140.301 730.965 140.781 730.074 141.742C729.184 142.691 728.633 144.027 728.422 145.75H737.949V145.504C737.855 143.852 737.41 142.574 736.613 141.672C735.816 140.758 734.738 140.301 733.379 140.301ZM748.039 137.98L748.127 140.09C749.521 138.449 751.402 137.629 753.77 137.629C756.43 137.629 758.24 138.648 759.201 140.688C759.834 139.773 760.654 139.035 761.662 138.473C762.682 137.91 763.883 137.629 765.266 137.629C769.438 137.629 771.559 139.838 771.629 144.256V157H768.377V144.449C768.377 143.09 768.066 142.076 767.445 141.408C766.824 140.729 765.781 140.389 764.316 140.389C763.109 140.389 762.107 140.752 761.311 141.479C760.514 142.193 760.051 143.16 759.922 144.379V157H756.652V144.537C756.652 141.771 755.299 140.389 752.592 140.389C750.459 140.389 749 141.297 748.215 143.113V157H744.963V137.98H748.039ZM783.318 147.455H774.74V144.801H783.318V147.455ZM792.775 152.588L797.486 137.98H800.809L793.988 157H791.51L784.619 137.98H787.941L792.775 152.588ZM807.471 157H804.219V137.98H807.471V157ZM803.955 132.936C803.955 132.408 804.113 131.963 804.43 131.6C804.758 131.236 805.238 131.055 805.871 131.055C806.504 131.055 806.984 131.236 807.312 131.6C807.641 131.963 807.805 132.408 807.805 132.936C807.805 133.463 807.641 133.902 807.312 134.254C806.984 134.605 806.504 134.781 805.871 134.781C805.238 134.781 804.758 134.605 804.43 134.254C804.113 133.902 803.955 133.463 803.955 132.936ZM815.768 137.98L815.873 140.371C817.326 138.543 819.225 137.629 821.568 137.629C825.588 137.629 827.615 139.896 827.65 144.432V157H824.398V144.414C824.387 143.043 824.07 142.029 823.449 141.373C822.84 140.717 821.885 140.389 820.584 140.389C819.529 140.389 818.604 140.67 817.807 141.232C817.01 141.795 816.389 142.533 815.943 143.447V157H812.691V137.98H815.768ZM831.764 147.332C831.764 144.414 832.455 142.07 833.838 140.301C835.221 138.52 837.031 137.629 839.27 137.629C841.496 137.629 843.26 138.391 844.561 139.914V130H847.812V157H844.824L844.666 154.961C843.365 156.555 841.555 157.352 839.234 157.352C837.031 157.352 835.232 156.449 833.838 154.645C832.455 152.84 831.764 150.484 831.764 147.578V147.332ZM835.016 147.701C835.016 149.857 835.461 151.545 836.352 152.764C837.242 153.982 838.473 154.592 840.043 154.592C842.105 154.592 843.611 153.666 844.561 151.814V143.078C843.588 141.285 842.094 140.389 840.078 140.389C838.484 140.389 837.242 141.004 836.352 142.234C835.461 143.465 835.016 145.287 835.016 147.701ZM852.014 147.314C852.014 145.451 852.377 143.775 853.104 142.287C853.842 140.799 854.861 139.65 856.162 138.842C857.475 138.033 858.969 137.629 860.645 137.629C863.234 137.629 865.326 138.525 866.92 140.318C868.525 142.111 869.328 144.496 869.328 147.473V147.701C869.328 149.553 868.971 151.217 868.256 152.693C867.553 154.158 866.539 155.301 865.215 156.121C863.902 156.941 862.391 157.352 860.68 157.352C858.102 157.352 856.01 156.455 854.404 154.662C852.811 152.869 852.014 150.496 852.014 147.543V147.314ZM855.283 147.701C855.283 149.811 855.77 151.504 856.742 152.781C857.727 154.059 859.039 154.697 860.68 154.697C862.332 154.697 863.645 154.053 864.617 152.764C865.59 151.463 866.076 149.646 866.076 147.314C866.076 145.229 865.578 143.541 864.582 142.252C863.598 140.951 862.285 140.301 860.645 140.301C859.039 140.301 857.744 140.939 856.76 142.217C855.775 143.494 855.283 145.322 855.283 147.701ZM896.979 150.32H886.256L883.848 157H880.367L890.141 131.406H893.094L902.885 157H899.422L896.979 150.32ZM887.275 147.543H895.977L891.617 135.572L887.275 147.543ZM905.029 147.332C905.029 144.414 905.721 142.07 907.104 140.301C908.486 138.52 910.297 137.629 912.535 137.629C914.762 137.629 916.525 138.391 917.826 139.914V130H921.078V157H918.09L917.932 154.961C916.631 156.555 914.82 157.352 912.5 157.352C910.297 157.352 908.498 156.449 907.104 154.645C905.721 152.84 905.029 150.484 905.029 147.578V147.332ZM908.281 147.701C908.281 149.857 908.727 151.545 909.617 152.764C910.508 153.982 911.738 154.592 913.309 154.592C915.371 154.592 916.877 153.666 917.826 151.814V143.078C916.854 141.285 915.359 140.389 913.344 140.389C911.75 140.389 910.508 141.004 909.617 142.234C908.727 143.465 908.281 145.287 908.281 147.701ZM929.199 137.98L929.287 140.09C930.682 138.449 932.562 137.629 934.93 137.629C937.59 137.629 939.4 138.648 940.361 140.688C940.994 139.773 941.814 139.035 942.822 138.473C943.842 137.91 945.043 137.629 946.426 137.629C950.598 137.629 952.719 139.838 952.789 144.256V157H949.537V144.449C949.537 143.09 949.227 142.076 948.605 141.408C947.984 140.729 946.941 140.389 945.477 140.389C944.27 140.389 943.268 140.752 942.471 141.479C941.674 142.193 941.211 143.16 941.082 144.379V157H937.812V144.537C937.812 141.771 936.459 140.389 933.752 140.389C931.619 140.389 930.16 141.297 929.375 143.113V157H926.123V137.98H929.199ZM961.244 157H957.992V137.98H961.244V157ZM957.729 132.936C957.729 132.408 957.887 131.963 958.203 131.6C958.531 131.236 959.012 131.055 959.645 131.055C960.277 131.055 960.758 131.236 961.086 131.6C961.414 131.963 961.578 132.408 961.578 132.936C961.578 133.463 961.414 133.902 961.086 134.254C960.758 134.605 960.277 134.781 959.645 134.781C959.012 134.781 958.531 134.605 958.203 134.254C957.887 133.902 957.729 133.463 957.729 132.936ZM969.541 137.98L969.646 140.371C971.1 138.543 972.998 137.629 975.342 137.629C979.361 137.629 981.389 139.896 981.424 144.432V157H978.172V144.414C978.16 143.043 977.844 142.029 977.223 141.373C976.613 140.717 975.658 140.389 974.357 140.389C973.303 140.389 972.377 140.67 971.58 141.232C970.783 141.795 970.162 142.533 969.717 143.447V157H966.465V137.98H969.541ZM989.861 157H986.609V137.98H989.861V157ZM986.346 132.936C986.346 132.408 986.504 131.963 986.82 131.6C987.148 131.236 987.629 131.055 988.262 131.055C988.895 131.055 989.375 131.236 989.703 131.6C990.031 131.963 990.195 132.408 990.195 132.936C990.195 133.463 990.031 133.902 989.703 134.254C989.375 134.605 988.895 134.781 988.262 134.781C987.629 134.781 987.148 134.605 986.82 134.254C986.504 133.902 986.346 133.463 986.346 132.936ZM1006.16 151.955C1006.16 151.076 1005.82 150.396 1005.15 149.916C1004.5 149.424 1003.34 149.002 1001.69 148.65C1000.05 148.299 998.744 147.877 997.771 147.385C996.811 146.893 996.096 146.307 995.627 145.627C995.17 144.947 994.941 144.139 994.941 143.201C994.941 141.643 995.598 140.324 996.91 139.246C998.234 138.168 999.922 137.629 1001.97 137.629C1004.13 137.629 1005.88 138.186 1007.21 139.299C1008.56 140.412 1009.23 141.836 1009.23 143.57H1005.96C1005.96 142.68 1005.58 141.912 1004.82 141.268C1004.07 140.623 1003.12 140.301 1001.97 140.301C1000.79 140.301 999.863 140.559 999.195 141.074C998.527 141.59 998.193 142.264 998.193 143.096C998.193 143.881 998.504 144.473 999.125 144.871C999.746 145.27 1000.87 145.65 1002.48 146.014C1004.11 146.377 1005.43 146.811 1006.44 147.314C1007.45 147.818 1008.19 148.428 1008.67 149.143C1009.16 149.846 1009.41 150.707 1009.41 151.727C1009.41 153.426 1008.73 154.791 1007.37 155.822C1006.01 156.842 1004.25 157.352 1002.08 157.352C1000.55 157.352 999.207 157.082 998.035 156.543C996.863 156.004 995.943 155.254 995.275 154.293C994.619 153.32 994.291 152.271 994.291 151.146H997.543C997.602 152.236 998.035 153.104 998.844 153.748C999.664 154.381 1000.74 154.697 1002.08 154.697C1003.31 154.697 1004.29 154.451 1005.03 153.959C1005.78 153.455 1006.16 152.787 1006.16 151.955ZM1018.06 133.375V137.98H1021.61V140.494H1018.06V152.289C1018.06 153.051 1018.21 153.625 1018.53 154.012C1018.85 154.387 1019.39 154.574 1020.15 154.574C1020.52 154.574 1021.04 154.504 1021.7 154.363V157C1020.84 157.234 1020.01 157.352 1019.2 157.352C1017.75 157.352 1016.65 156.912 1015.91 156.033C1015.17 155.154 1014.8 153.906 1014.8 152.289V140.494H1011.34V137.98H1014.8V133.375H1018.06ZM1034.62 140.898C1034.12 140.816 1033.59 140.775 1033.02 140.775C1030.88 140.775 1029.44 141.684 1028.67 143.5V157H1025.42V137.98H1028.59L1028.64 140.178C1029.71 138.479 1031.22 137.629 1033.17 137.629C1033.81 137.629 1034.29 137.711 1034.62 137.875V140.898ZM1048.66 157C1048.47 156.625 1048.32 155.957 1048.2 154.996C1046.69 156.566 1044.89 157.352 1042.79 157.352C1040.91 157.352 1039.37 156.824 1038.17 155.77C1036.97 154.703 1036.37 153.355 1036.37 151.727C1036.37 149.746 1037.12 148.211 1038.62 147.121C1040.13 146.02 1042.26 145.469 1044.99 145.469H1048.15V143.975C1048.15 142.838 1047.81 141.936 1047.13 141.268C1046.45 140.588 1045.45 140.248 1044.12 140.248C1042.96 140.248 1041.99 140.541 1041.21 141.127C1040.42 141.713 1040.03 142.422 1040.03 143.254H1036.76C1036.76 142.305 1037.09 141.391 1037.76 140.512C1038.44 139.621 1039.36 138.918 1040.5 138.402C1041.66 137.887 1042.94 137.629 1044.32 137.629C1046.51 137.629 1048.23 138.18 1049.47 139.281C1050.71 140.371 1051.36 141.877 1051.4 143.799V152.553C1051.4 154.299 1051.62 155.688 1052.07 156.719V157H1048.66ZM1043.26 154.521C1044.28 154.521 1045.25 154.258 1046.16 153.73C1047.08 153.203 1047.74 152.518 1048.15 151.674V147.771H1045.6C1041.62 147.771 1039.62 148.938 1039.62 151.27C1039.62 152.289 1039.96 153.086 1040.64 153.66C1041.32 154.234 1042.2 154.521 1043.26 154.521ZM1055.71 147.332C1055.71 144.414 1056.4 142.07 1057.78 140.301C1059.17 138.52 1060.98 137.629 1063.21 137.629C1065.44 137.629 1067.21 138.391 1068.51 139.914V130H1071.76V157H1068.77L1068.61 154.961C1067.31 156.555 1065.5 157.352 1063.18 157.352C1060.98 157.352 1059.18 156.449 1057.78 154.645C1056.4 152.84 1055.71 150.484 1055.71 147.578V147.332ZM1058.96 147.701C1058.96 149.857 1059.41 151.545 1060.3 152.764C1061.19 153.982 1062.42 154.592 1063.99 154.592C1066.05 154.592 1067.56 153.666 1068.51 151.814V143.078C1067.53 141.285 1066.04 140.389 1064.02 140.389C1062.43 140.389 1061.19 141.004 1060.3 142.234C1059.41 143.465 1058.96 145.287 1058.96 147.701ZM1075.96 147.314C1075.96 145.451 1076.32 143.775 1077.05 142.287C1077.79 140.799 1078.81 139.65 1080.11 138.842C1081.42 138.033 1082.91 137.629 1084.59 137.629C1087.18 137.629 1089.27 138.525 1090.87 140.318C1092.47 142.111 1093.27 144.496 1093.27 147.473V147.701C1093.27 149.553 1092.92 151.217 1092.2 152.693C1091.5 154.158 1090.48 155.301 1089.16 156.121C1087.85 156.941 1086.34 157.352 1084.62 157.352C1082.05 157.352 1079.96 156.455 1078.35 154.662C1076.76 152.869 1075.96 150.496 1075.96 147.543V147.314ZM1079.23 147.701C1079.23 149.811 1079.71 151.504 1080.69 152.781C1081.67 154.059 1082.98 154.697 1084.62 154.697C1086.28 154.697 1087.59 154.053 1088.56 152.764C1089.54 151.463 1090.02 149.646 1090.02 147.314C1090.02 145.229 1089.52 143.541 1088.53 142.252C1087.54 140.951 1086.23 140.301 1084.59 140.301C1082.98 140.301 1081.69 140.939 1080.71 142.217C1079.72 143.494 1079.23 145.322 1079.23 147.701ZM1106.54 140.898C1106.05 140.816 1105.52 140.775 1104.95 140.775C1102.81 140.775 1101.37 141.684 1100.6 143.5V157H1097.35V137.98H1100.52L1100.57 140.178C1101.63 138.479 1103.15 137.629 1105.1 137.629C1105.74 137.629 1106.22 137.711 1106.54 137.875V140.898ZM1113.19 149.775H1110.25L1110.03 131.406H1113.44L1113.19 149.775ZM1109.9 155.365C1109.9 154.838 1110.06 154.398 1110.38 154.047C1110.71 153.684 1111.19 153.502 1111.82 153.502C1112.45 153.502 1112.93 153.684 1113.26 154.047C1113.59 154.398 1113.75 154.838 1113.75 155.365C1113.75 155.893 1113.59 156.332 1113.26 156.684C1112.93 157.023 1112.45 157.193 1111.82 157.193C1111.19 157.193 1110.71 157.023 1110.38 156.684C1110.06 156.332 1109.9 155.893 1109.9 155.365ZM712.391 205.465H705.23V213H702.98V195.938H713.551V197.789H705.23V203.625H712.391V205.465ZM723.336 213C723.211 212.75 723.109 212.305 723.031 211.664C722.023 212.711 720.82 213.234 719.422 213.234C718.172 213.234 717.145 212.883 716.34 212.18C715.543 211.469 715.145 210.57 715.145 209.484C715.145 208.164 715.645 207.141 716.645 206.414C717.652 205.68 719.066 205.312 720.887 205.312H722.996V204.316C722.996 203.559 722.77 202.957 722.316 202.512C721.863 202.059 721.195 201.832 720.312 201.832C719.539 201.832 718.891 202.027 718.367 202.418C717.844 202.809 717.582 203.281 717.582 203.836H715.402C715.402 203.203 715.625 202.594 716.07 202.008C716.523 201.414 717.133 200.945 717.898 200.602C718.672 200.258 719.52 200.086 720.441 200.086C721.902 200.086 723.047 200.453 723.875 201.188C724.703 201.914 725.133 202.918 725.164 204.199V210.035C725.164 211.199 725.312 212.125 725.609 212.812V213H723.336ZM719.738 211.348C720.418 211.348 721.062 211.172 721.672 210.82C722.281 210.469 722.723 210.012 722.996 209.449V206.848H721.297C718.641 206.848 717.312 207.625 717.312 209.18C717.312 209.859 717.539 210.391 717.992 210.773C718.445 211.156 719.027 211.348 719.738 211.348ZM733.648 211.465C734.422 211.465 735.098 211.23 735.676 210.762C736.254 210.293 736.574 209.707 736.637 209.004H738.688C738.648 209.73 738.398 210.422 737.938 211.078C737.477 211.734 736.859 212.258 736.086 212.648C735.32 213.039 734.508 213.234 733.648 213.234C731.922 213.234 730.547 212.66 729.523 211.512C728.508 210.355 728 208.777 728 206.777V206.414C728 205.18 728.227 204.082 728.68 203.121C729.133 202.16 729.781 201.414 730.625 200.883C731.477 200.352 732.48 200.086 733.637 200.086C735.059 200.086 736.238 200.512 737.176 201.363C738.121 202.215 738.625 203.32 738.688 204.68H736.637C736.574 203.859 736.262 203.188 735.699 202.664C735.145 202.133 734.457 201.867 733.637 201.867C732.535 201.867 731.68 202.266 731.07 203.062C730.469 203.852 730.168 204.996 730.168 206.496V206.906C730.168 208.367 730.469 209.492 731.07 210.281C731.672 211.07 732.531 211.465 733.648 211.465ZM734 213.105L733.859 213.715C735.055 213.926 735.652 214.602 735.652 215.742C735.652 216.5 735.34 217.098 734.715 217.535C734.09 217.98 733.219 218.203 732.102 218.203L732.02 216.949C732.637 216.949 733.113 216.848 733.449 216.645C733.793 216.441 733.965 216.156 733.965 215.789C733.965 215.445 733.84 215.191 733.59 215.027C733.34 214.863 732.832 214.746 732.066 214.676L732.441 213.105H734ZM748.953 213C748.828 212.75 748.727 212.305 748.648 211.664C747.641 212.711 746.438 213.234 745.039 213.234C743.789 213.234 742.762 212.883 741.957 212.18C741.16 211.469 740.762 210.57 740.762 209.484C740.762 208.164 741.262 207.141 742.262 206.414C743.27 205.68 744.684 205.312 746.504 205.312H748.613V204.316C748.613 203.559 748.387 202.957 747.934 202.512C747.48 202.059 746.812 201.832 745.93 201.832C745.156 201.832 744.508 202.027 743.984 202.418C743.461 202.809 743.199 203.281 743.199 203.836H741.02C741.02 203.203 741.242 202.594 741.688 202.008C742.141 201.414 742.75 200.945 743.516 200.602C744.289 200.258 745.137 200.086 746.059 200.086C747.52 200.086 748.664 200.453 749.492 201.188C750.32 201.914 750.75 202.918 750.781 204.199V210.035C750.781 211.199 750.93 212.125 751.227 212.812V213H748.953ZM745.355 211.348C746.035 211.348 746.68 211.172 747.289 210.82C747.898 210.469 748.34 210.012 748.613 209.449V206.848H746.914C744.258 206.848 742.93 207.625 742.93 209.18C742.93 209.859 743.156 210.391 743.609 210.773C744.062 211.156 744.645 211.348 745.355 211.348ZM762.734 211.16H770.82V213H760.473V195.938H762.734V211.16ZM772.473 206.543C772.473 205.301 772.715 204.184 773.199 203.191C773.691 202.199 774.371 201.434 775.238 200.895C776.113 200.355 777.109 200.086 778.227 200.086C779.953 200.086 781.348 200.684 782.41 201.879C783.48 203.074 784.016 204.664 784.016 206.648V206.801C784.016 208.035 783.777 209.145 783.301 210.129C782.832 211.105 782.156 211.867 781.273 212.414C780.398 212.961 779.391 213.234 778.25 213.234C776.531 213.234 775.137 212.637 774.066 211.441C773.004 210.246 772.473 208.664 772.473 206.695V206.543ZM774.652 206.801C774.652 208.207 774.977 209.336 775.625 210.188C776.281 211.039 777.156 211.465 778.25 211.465C779.352 211.465 780.227 211.035 780.875 210.176C781.523 209.309 781.848 208.098 781.848 206.543C781.848 205.152 781.516 204.027 780.852 203.168C780.195 202.301 779.32 201.867 778.227 201.867C777.156 201.867 776.293 202.293 775.637 203.145C774.98 203.996 774.652 205.215 774.652 206.801ZM786.219 206.555C786.219 204.578 786.676 203.008 787.59 201.844C788.504 200.672 789.715 200.086 791.223 200.086C792.77 200.086 793.977 200.633 794.844 201.727L794.949 200.32H796.93V212.695C796.93 214.336 796.441 215.629 795.465 216.574C794.496 217.52 793.191 217.992 791.551 217.992C790.637 217.992 789.742 217.797 788.867 217.406C787.992 217.016 787.324 216.48 786.863 215.801L787.988 214.5C788.918 215.648 790.055 216.223 791.398 216.223C792.453 216.223 793.273 215.926 793.859 215.332C794.453 214.738 794.75 213.902 794.75 212.824V211.734C793.883 212.734 792.699 213.234 791.199 213.234C789.715 213.234 788.512 212.637 787.59 211.441C786.676 210.246 786.219 208.617 786.219 206.555ZM788.398 206.801C788.398 208.23 788.691 209.355 789.277 210.176C789.863 210.988 790.684 211.395 791.738 211.395C793.105 211.395 794.109 210.773 794.75 209.531V203.742C794.086 202.531 793.09 201.926 791.762 201.926C790.707 201.926 789.883 202.336 789.289 203.156C788.695 203.977 788.398 205.191 788.398 206.801ZM802.566 213H800.398V200.32H802.566V213ZM800.223 196.957C800.223 196.605 800.328 196.309 800.539 196.066C800.758 195.824 801.078 195.703 801.5 195.703C801.922 195.703 802.242 195.824 802.461 196.066C802.68 196.309 802.789 196.605 802.789 196.957C802.789 197.309 802.68 197.602 802.461 197.836C802.242 198.07 801.922 198.188 801.5 198.188C801.078 198.188 800.758 198.07 800.539 197.836C800.328 197.602 800.223 197.309 800.223 196.957ZM808.098 200.32L808.168 201.914C809.137 200.695 810.402 200.086 811.965 200.086C814.645 200.086 815.996 201.598 816.02 204.621V213H813.852V204.609C813.844 203.695 813.633 203.02 813.219 202.582C812.812 202.145 812.176 201.926 811.309 201.926C810.605 201.926 809.988 202.113 809.457 202.488C808.926 202.863 808.512 203.355 808.215 203.965V213H806.047V200.32H808.098ZM830.504 213.234C828.785 213.234 827.387 212.672 826.309 211.547C825.23 210.414 824.691 208.902 824.691 207.012V206.613C824.691 205.355 824.93 204.234 825.406 203.25C825.891 202.258 826.562 201.484 827.422 200.93C828.289 200.367 829.227 200.086 830.234 200.086C831.883 200.086 833.164 200.629 834.078 201.715C834.992 202.801 835.449 204.355 835.449 206.379V207.281H826.859C826.891 208.531 827.254 209.543 827.949 210.316C828.652 211.082 829.543 211.465 830.621 211.465C831.387 211.465 832.035 211.309 832.566 210.996C833.098 210.684 833.562 210.27 833.961 209.754L835.285 210.785C834.223 212.418 832.629 213.234 830.504 213.234ZM830.234 201.867C829.359 201.867 828.625 202.188 828.031 202.828C827.438 203.461 827.07 204.352 826.93 205.5H833.281V205.336C833.219 204.234 832.922 203.383 832.391 202.781C831.859 202.172 831.141 201.867 830.234 201.867ZM840.008 200.32L840.066 201.727C840.996 200.633 842.25 200.086 843.828 200.086C845.602 200.086 846.809 200.766 847.449 202.125C847.871 201.516 848.418 201.023 849.09 200.648C849.77 200.273 850.57 200.086 851.492 200.086C854.273 200.086 855.688 201.559 855.734 204.504V213H853.566V204.633C853.566 203.727 853.359 203.051 852.945 202.605C852.531 202.152 851.836 201.926 850.859 201.926C850.055 201.926 849.387 202.168 848.855 202.652C848.324 203.129 848.016 203.773 847.93 204.586V213H845.75V204.691C845.75 202.848 844.848 201.926 843.043 201.926C841.621 201.926 840.648 202.531 840.125 203.742V213H837.957V200.32H840.008ZM872.352 209.637C872.352 209.051 872.129 208.598 871.684 208.277C871.246 207.949 870.477 207.668 869.375 207.434C868.281 207.199 867.41 206.918 866.762 206.59C866.121 206.262 865.645 205.871 865.332 205.418C865.027 204.965 864.875 204.426 864.875 203.801C864.875 202.762 865.312 201.883 866.188 201.164C867.07 200.445 868.195 200.086 869.562 200.086C871 200.086 872.164 200.457 873.055 201.199C873.953 201.941 874.402 202.891 874.402 204.047H872.223C872.223 203.453 871.969 202.941 871.461 202.512C870.961 202.082 870.328 201.867 869.562 201.867C868.773 201.867 868.156 202.039 867.711 202.383C867.266 202.727 867.043 203.176 867.043 203.73C867.043 204.254 867.25 204.648 867.664 204.914C868.078 205.18 868.824 205.434 869.902 205.676C870.988 205.918 871.867 206.207 872.539 206.543C873.211 206.879 873.707 207.285 874.027 207.762C874.355 208.23 874.52 208.805 874.52 209.484C874.52 210.617 874.066 211.527 873.16 212.215C872.254 212.895 871.078 213.234 869.633 213.234C868.617 213.234 867.719 213.055 866.938 212.695C866.156 212.336 865.543 211.836 865.098 211.195C864.66 210.547 864.441 209.848 864.441 209.098H866.609C866.648 209.824 866.938 210.402 867.477 210.832C868.023 211.254 868.742 211.465 869.633 211.465C870.453 211.465 871.109 211.301 871.602 210.973C872.102 210.637 872.352 210.191 872.352 209.637ZM885.172 211.746C884.328 212.738 883.09 213.234 881.457 213.234C880.105 213.234 879.074 212.844 878.363 212.062C877.66 211.273 877.305 210.109 877.297 208.57V200.32H879.465V208.512C879.465 210.434 880.246 211.395 881.809 211.395C883.465 211.395 884.566 210.777 885.113 209.543V200.32H887.281V213H885.219L885.172 211.746ZM898.414 213C898.289 212.75 898.188 212.305 898.109 211.664C897.102 212.711 895.898 213.234 894.5 213.234C893.25 213.234 892.223 212.883 891.418 212.18C890.621 211.469 890.223 210.57 890.223 209.484C890.223 208.164 890.723 207.141 891.723 206.414C892.73 205.68 894.145 205.312 895.965 205.312H898.074V204.316C898.074 203.559 897.848 202.957 897.395 202.512C896.941 202.059 896.273 201.832 895.391 201.832C894.617 201.832 893.969 202.027 893.445 202.418C892.922 202.809 892.66 203.281 892.66 203.836H890.48C890.48 203.203 890.703 202.594 891.148 202.008C891.602 201.414 892.211 200.945 892.977 200.602C893.75 200.258 894.598 200.086 895.52 200.086C896.98 200.086 898.125 200.453 898.953 201.188C899.781 201.914 900.211 202.918 900.242 204.199V210.035C900.242 211.199 900.391 212.125 900.688 212.812V213H898.414ZM894.816 211.348C895.496 211.348 896.141 211.172 896.75 210.82C897.359 210.469 897.801 210.012 898.074 209.449V206.848H896.375C893.719 206.848 892.391 207.625 892.391 209.18C892.391 209.859 892.617 210.391 893.07 210.773C893.523 211.156 894.105 211.348 894.816 211.348ZM914.68 211.465C915.453 211.465 916.129 211.23 916.707 210.762C917.285 210.293 917.605 209.707 917.668 209.004H919.719C919.68 209.73 919.43 210.422 918.969 211.078C918.508 211.734 917.891 212.258 917.117 212.648C916.352 213.039 915.539 213.234 914.68 213.234C912.953 213.234 911.578 212.66 910.555 211.512C909.539 210.355 909.031 208.777 909.031 206.777V206.414C909.031 205.18 909.258 204.082 909.711 203.121C910.164 202.16 910.812 201.414 911.656 200.883C912.508 200.352 913.512 200.086 914.668 200.086C916.09 200.086 917.27 200.512 918.207 201.363C919.152 202.215 919.656 203.32 919.719 204.68H917.668C917.605 203.859 917.293 203.188 916.73 202.664C916.176 202.133 915.488 201.867 914.668 201.867C913.566 201.867 912.711 202.266 912.102 203.062C911.5 203.852 911.199 204.996 911.199 206.496V206.906C911.199 208.367 911.5 209.492 912.102 210.281C912.703 211.07 913.562 211.465 914.68 211.465ZM921.582 206.543C921.582 205.301 921.824 204.184 922.309 203.191C922.801 202.199 923.48 201.434 924.348 200.895C925.223 200.355 926.219 200.086 927.336 200.086C929.062 200.086 930.457 200.684 931.52 201.879C932.59 203.074 933.125 204.664 933.125 206.648V206.801C933.125 208.035 932.887 209.145 932.41 210.129C931.941 211.105 931.266 211.867 930.383 212.414C929.508 212.961 928.5 213.234 927.359 213.234C925.641 213.234 924.246 212.637 923.176 211.441C922.113 210.246 921.582 208.664 921.582 206.695V206.543ZM923.762 206.801C923.762 208.207 924.086 209.336 924.734 210.188C925.391 211.039 926.266 211.465 927.359 211.465C928.461 211.465 929.336 211.035 929.984 210.176C930.633 209.309 930.957 208.098 930.957 206.543C930.957 205.152 930.625 204.027 929.961 203.168C929.305 202.301 928.43 201.867 927.336 201.867C926.266 201.867 925.402 202.293 924.746 203.145C924.09 203.996 923.762 205.215 923.762 206.801ZM937.895 200.32L937.965 201.914C938.934 200.695 940.199 200.086 941.762 200.086C944.441 200.086 945.793 201.598 945.816 204.621V213H943.648V204.609C943.641 203.695 943.43 203.02 943.016 202.582C942.609 202.145 941.973 201.926 941.105 201.926C940.402 201.926 939.785 202.113 939.254 202.488C938.723 202.863 938.309 203.355 938.012 203.965V213H935.844V200.32H937.895ZM952.027 197.25V200.32H954.395V201.996H952.027V209.859C952.027 210.367 952.133 210.75 952.344 211.008C952.555 211.258 952.914 211.383 953.422 211.383C953.672 211.383 954.016 211.336 954.453 211.242V213C953.883 213.156 953.328 213.234 952.789 213.234C951.82 213.234 951.09 212.941 950.598 212.355C950.105 211.77 949.859 210.938 949.859 209.859V201.996H947.551V200.32H949.859V197.25H952.027ZM964.766 213C964.641 212.75 964.539 212.305 964.461 211.664C963.453 212.711 962.25 213.234 960.852 213.234C959.602 213.234 958.574 212.883 957.77 212.18C956.973 211.469 956.574 210.57 956.574 209.484C956.574 208.164 957.074 207.141 958.074 206.414C959.082 205.68 960.496 205.312 962.316 205.312H964.426V204.316C964.426 203.559 964.199 202.957 963.746 202.512C963.293 202.059 962.625 201.832 961.742 201.832C960.969 201.832 960.32 202.027 959.797 202.418C959.273 202.809 959.012 203.281 959.012 203.836H956.832C956.832 203.203 957.055 202.594 957.5 202.008C957.953 201.414 958.562 200.945 959.328 200.602C960.102 200.258 960.949 200.086 961.871 200.086C963.332 200.086 964.477 200.453 965.305 201.188C966.133 201.914 966.562 202.918 966.594 204.199V210.035C966.594 211.199 966.742 212.125 967.039 212.812V213H964.766ZM961.168 211.348C961.848 211.348 962.492 211.172 963.102 210.82C963.711 210.469 964.152 210.012 964.426 209.449V206.848H962.727C960.07 206.848 958.742 207.625 958.742 209.18C958.742 209.859 958.969 210.391 959.422 210.773C959.875 211.156 960.457 211.348 961.168 211.348Z" fill="black"/>
<rect x="701" y="229" width="380" height="67" rx="15" fill="#C4C4C4"/>
<rect x="701" y="313" width="380" height="67" rx="15" fill="#C4C4C4"/>
<rect x="701" y="430" width="380" height="67" rx="15" fill="#323232"/>
<path d="M739.719 261.085H734.173V265.62H740.615V267H732.485V254.203H740.527V255.592H734.173V259.705H739.719V261.085ZM743.99 257.49L744.034 258.545C744.731 257.725 745.672 257.314 746.855 257.314C748.186 257.314 749.091 257.824 749.571 258.844C749.888 258.387 750.298 258.018 750.802 257.736C751.312 257.455 751.912 257.314 752.604 257.314C754.689 257.314 755.75 258.419 755.785 260.628V267H754.159V260.725C754.159 260.045 754.004 259.538 753.693 259.204C753.383 258.864 752.861 258.694 752.129 258.694C751.525 258.694 751.024 258.876 750.626 259.239C750.228 259.597 749.996 260.08 749.932 260.689V267H748.297V260.769C748.297 259.386 747.62 258.694 746.267 258.694C745.2 258.694 744.471 259.148 744.078 260.057V267H742.452V257.49H743.99ZM764.117 267C764.023 266.812 763.947 266.479 763.889 265.998C763.133 266.783 762.23 267.176 761.182 267.176C760.244 267.176 759.474 266.912 758.87 266.385C758.272 265.852 757.974 265.178 757.974 264.363C757.974 263.373 758.349 262.605 759.099 262.061C759.854 261.51 760.915 261.234 762.28 261.234H763.862V260.487C763.862 259.919 763.692 259.468 763.353 259.134C763.013 258.794 762.512 258.624 761.85 258.624C761.27 258.624 760.783 258.771 760.391 259.063C759.998 259.356 759.802 259.711 759.802 260.127H758.167C758.167 259.652 758.334 259.195 758.668 258.756C759.008 258.311 759.465 257.959 760.039 257.701C760.619 257.443 761.255 257.314 761.946 257.314C763.042 257.314 763.9 257.59 764.521 258.141C765.143 258.686 765.465 259.438 765.488 260.399V264.776C765.488 265.649 765.6 266.344 765.822 266.859V267H764.117ZM761.419 265.761C761.929 265.761 762.412 265.629 762.869 265.365C763.326 265.102 763.657 264.759 763.862 264.337V262.386H762.588C760.596 262.386 759.6 262.969 759.6 264.135C759.6 264.645 759.77 265.043 760.109 265.33C760.449 265.617 760.886 265.761 761.419 265.761ZM769.804 267H768.178V257.49H769.804V267ZM768.046 254.968C768.046 254.704 768.125 254.481 768.283 254.3C768.447 254.118 768.688 254.027 769.004 254.027C769.32 254.027 769.561 254.118 769.725 254.3C769.889 254.481 769.971 254.704 769.971 254.968C769.971 255.231 769.889 255.451 769.725 255.627C769.561 255.803 769.32 255.891 769.004 255.891C768.688 255.891 768.447 255.803 768.283 255.627C768.125 255.451 768.046 255.231 768.046 254.968ZM774.181 267H772.555V253.5H774.181V267Z" fill="black"/>
<path d="M736.256 347.296C734.809 346.88 733.754 346.37 733.092 345.767C732.436 345.157 732.107 344.407 732.107 343.517C732.107 342.509 732.509 341.677 733.312 341.021C734.12 340.358 735.169 340.027 736.458 340.027C737.337 340.027 738.119 340.197 738.805 340.537C739.496 340.877 740.029 341.346 740.404 341.943C740.785 342.541 740.976 343.194 740.976 343.903H739.279C739.279 343.13 739.033 342.523 738.541 342.084C738.049 341.639 737.354 341.416 736.458 341.416C735.626 341.416 734.976 341.601 734.507 341.97C734.044 342.333 733.812 342.84 733.812 343.49C733.812 344.012 734.032 344.454 734.472 344.817C734.917 345.175 735.67 345.503 736.73 345.802C737.797 346.101 738.629 346.432 739.227 346.795C739.83 347.152 740.275 347.571 740.562 348.052C740.855 348.532 741.002 349.098 741.002 349.748C741.002 350.785 740.598 351.617 739.789 352.244C738.98 352.865 737.899 353.176 736.546 353.176C735.667 353.176 734.847 353.009 734.085 352.675C733.323 352.335 732.734 351.872 732.318 351.286C731.908 350.7 731.703 350.035 731.703 349.291H733.399C733.399 350.064 733.684 350.677 734.252 351.128C734.826 351.573 735.591 351.796 736.546 351.796C737.437 351.796 738.119 351.614 738.594 351.251C739.068 350.888 739.306 350.393 739.306 349.766C739.306 349.139 739.086 348.655 738.646 348.315C738.207 347.97 737.41 347.63 736.256 347.296ZM746.864 353.176C745.575 353.176 744.526 352.754 743.718 351.91C742.909 351.061 742.505 349.927 742.505 348.509V348.21C742.505 347.267 742.684 346.426 743.041 345.688C743.404 344.943 743.908 344.363 744.553 343.947C745.203 343.525 745.906 343.314 746.662 343.314C747.898 343.314 748.859 343.722 749.545 344.536C750.23 345.351 750.573 346.517 750.573 348.034V348.711H744.131C744.154 349.648 744.427 350.407 744.948 350.987C745.476 351.562 746.144 351.849 746.952 351.849C747.526 351.849 748.013 351.731 748.411 351.497C748.81 351.263 749.158 350.952 749.457 350.565L750.45 351.339C749.653 352.563 748.458 353.176 746.864 353.176ZM746.662 344.65C746.006 344.65 745.455 344.891 745.01 345.371C744.564 345.846 744.289 346.514 744.184 347.375H748.947V347.252C748.9 346.426 748.678 345.787 748.279 345.336C747.881 344.879 747.342 344.65 746.662 344.65ZM754.001 343.49L754.054 344.686C754.78 343.771 755.729 343.314 756.901 343.314C758.911 343.314 759.925 344.448 759.942 346.716V353H758.316V346.707C758.311 346.021 758.152 345.515 757.842 345.187C757.537 344.858 757.06 344.694 756.409 344.694C755.882 344.694 755.419 344.835 755.021 345.116C754.622 345.397 754.312 345.767 754.089 346.224V353H752.463V343.49H754.001ZM764.021 344.642C764.741 343.757 765.679 343.314 766.833 343.314C768.843 343.314 769.856 344.448 769.874 346.716V353H768.248V346.707C768.242 346.021 768.084 345.515 767.773 345.187C767.469 344.858 766.991 344.694 766.341 344.694C765.813 344.694 765.351 344.835 764.952 345.116C764.554 345.397 764.243 345.767 764.021 346.224V353H762.395V339.5H764.021V344.642ZM778.18 353C778.086 352.812 778.01 352.479 777.951 351.998C777.195 352.783 776.293 353.176 775.244 353.176C774.307 353.176 773.536 352.912 772.933 352.385C772.335 351.852 772.036 351.178 772.036 350.363C772.036 349.373 772.411 348.605 773.161 348.061C773.917 347.51 774.978 347.234 776.343 347.234H777.925V346.487C777.925 345.919 777.755 345.468 777.415 345.134C777.075 344.794 776.574 344.624 775.912 344.624C775.332 344.624 774.846 344.771 774.453 345.063C774.061 345.356 773.864 345.711 773.864 346.127H772.229C772.229 345.652 772.396 345.195 772.73 344.756C773.07 344.311 773.527 343.959 774.102 343.701C774.682 343.443 775.317 343.314 776.009 343.314C777.104 343.314 777.963 343.59 778.584 344.141C779.205 344.686 779.527 345.438 779.551 346.399V350.776C779.551 351.649 779.662 352.344 779.885 352.859V353H778.18ZM775.481 351.761C775.991 351.761 776.475 351.629 776.932 351.365C777.389 351.102 777.72 350.759 777.925 350.337V348.386H776.65C774.658 348.386 773.662 348.969 773.662 350.135C773.662 350.645 773.832 351.043 774.172 351.33C774.512 351.617 774.948 351.761 775.481 351.761Z" fill="black"/>
<path d="M865.182 468.62H871.246V470H863.485V457.203H865.182V468.62ZM872.485 465.157C872.485 464.226 872.667 463.388 873.03 462.644C873.399 461.899 873.909 461.325 874.56 460.921C875.216 460.517 875.963 460.314 876.801 460.314C878.096 460.314 879.142 460.763 879.938 461.659C880.741 462.556 881.143 463.748 881.143 465.236V465.351C881.143 466.276 880.964 467.108 880.606 467.847C880.255 468.579 879.748 469.15 879.086 469.561C878.43 469.971 877.674 470.176 876.818 470.176C875.529 470.176 874.483 469.728 873.681 468.831C872.884 467.935 872.485 466.748 872.485 465.271V465.157ZM874.12 465.351C874.12 466.405 874.363 467.252 874.85 467.891C875.342 468.529 875.998 468.849 876.818 468.849C877.645 468.849 878.301 468.526 878.787 467.882C879.273 467.231 879.517 466.323 879.517 465.157C879.517 464.114 879.268 463.271 878.77 462.626C878.277 461.976 877.621 461.65 876.801 461.65C875.998 461.65 875.351 461.97 874.858 462.608C874.366 463.247 874.12 464.161 874.12 465.351ZM882.795 465.166C882.795 463.684 883.138 462.506 883.823 461.633C884.509 460.754 885.417 460.314 886.548 460.314C887.708 460.314 888.613 460.725 889.264 461.545L889.343 460.49H890.828V469.771C890.828 471.002 890.462 471.972 889.729 472.681C889.003 473.39 888.024 473.744 886.794 473.744C886.108 473.744 885.438 473.598 884.781 473.305C884.125 473.012 883.624 472.61 883.278 472.101L884.122 471.125C884.819 471.986 885.672 472.417 886.68 472.417C887.471 472.417 888.086 472.194 888.525 471.749C888.971 471.304 889.193 470.677 889.193 469.868V469.051C888.543 469.801 887.655 470.176 886.53 470.176C885.417 470.176 884.515 469.728 883.823 468.831C883.138 467.935 882.795 466.713 882.795 465.166ZM884.43 465.351C884.43 466.423 884.649 467.267 885.089 467.882C885.528 468.491 886.144 468.796 886.935 468.796C887.96 468.796 888.713 468.33 889.193 467.398V463.057C888.695 462.148 887.948 461.694 886.952 461.694C886.161 461.694 885.543 462.002 885.098 462.617C884.652 463.232 884.43 464.144 884.43 465.351ZM895.056 470H893.43V460.49H895.056V470ZM893.298 457.968C893.298 457.704 893.377 457.481 893.535 457.3C893.699 457.118 893.939 457.027 894.256 457.027C894.572 457.027 894.812 457.118 894.977 457.3C895.141 457.481 895.223 457.704 895.223 457.968C895.223 458.231 895.141 458.451 894.977 458.627C894.812 458.803 894.572 458.891 894.256 458.891C893.939 458.891 893.699 458.803 893.535 458.627C893.377 458.451 893.298 458.231 893.298 457.968ZM899.204 460.49L899.257 461.686C899.983 460.771 900.933 460.314 902.104 460.314C904.114 460.314 905.128 461.448 905.146 463.716V470H903.52V463.707C903.514 463.021 903.355 462.515 903.045 462.187C902.74 461.858 902.263 461.694 901.612 461.694C901.085 461.694 900.622 461.835 900.224 462.116C899.825 462.397 899.515 462.767 899.292 463.224V470H897.666V460.49H899.204Z" fill="white"/>
<rect width="605" height="690" fill="white"/>
<path d="M96.1865 65.3169H107.979V68H92.8882V43.1172H96.1865V65.3169ZM129.734 56.3618C129.734 58.8 129.324 60.9305 128.503 62.7534C127.683 64.5649 126.521 65.9492 125.017 66.9062C123.513 67.8633 121.759 68.3418 119.753 68.3418C117.794 68.3418 116.056 67.8633 114.541 66.9062C113.026 65.9378 111.847 64.5649 111.003 62.7876C110.172 60.9989 109.744 58.931 109.722 56.584V54.7896C109.722 52.397 110.138 50.2835 110.969 48.4492C111.801 46.6149 112.974 45.2135 114.49 44.2451C116.016 43.2653 117.76 42.7754 119.719 42.7754C121.713 42.7754 123.468 43.2596 124.983 44.228C126.51 45.1851 127.683 46.5807 128.503 48.415C129.324 50.238 129.734 52.3628 129.734 54.7896V56.3618ZM126.47 54.7554C126.47 51.8045 125.877 49.543 124.692 47.9707C123.507 46.387 121.85 45.5952 119.719 45.5952C117.646 45.5952 116.011 46.387 114.814 47.9707C113.63 49.543 113.02 51.7305 112.986 54.5332V56.3618C112.986 59.2215 113.584 61.4717 114.78 63.1123C115.988 64.7415 117.646 65.5562 119.753 65.5562C121.873 65.5562 123.513 64.7871 124.675 63.249C125.837 61.6995 126.436 59.4836 126.47 56.6011V54.7554ZM153.027 64.7358C152.184 65.9435 151.005 66.8493 149.49 67.4531C147.986 68.0456 146.231 68.3418 144.226 68.3418C142.198 68.3418 140.398 67.869 138.826 66.9233C137.253 65.9663 136.034 64.6105 135.168 62.856C134.314 61.1014 133.875 59.0677 133.853 56.7549V54.5845C133.853 50.8361 134.724 47.9308 136.467 45.8687C138.222 43.8065 140.683 42.7754 143.85 42.7754C146.448 42.7754 148.538 43.4419 150.122 44.7749C151.706 46.0965 152.674 47.9764 153.027 50.4146H149.746C149.131 47.1219 147.171 45.4756 143.867 45.4756C141.668 45.4756 139.999 46.2503 138.86 47.7998C137.732 49.3379 137.162 51.571 137.151 54.499V56.5327C137.151 59.3241 137.789 61.5457 139.065 63.1978C140.341 64.8384 142.067 65.6587 144.243 65.6587C145.474 65.6587 146.55 65.522 147.473 65.2485C148.396 64.9751 149.159 64.5137 149.763 63.8643V58.2759H144.004V55.6099H153.027V64.7358ZM177.654 56.3618C177.654 58.8 177.244 60.9305 176.423 62.7534C175.603 64.5649 174.441 65.9492 172.937 66.9062C171.433 67.8633 169.679 68.3418 167.673 68.3418C165.714 68.3418 163.976 67.8633 162.461 66.9062C160.946 65.9378 159.766 64.5649 158.923 62.7876C158.092 60.9989 157.664 58.931 157.642 56.584V54.7896C157.642 52.397 158.057 50.2835 158.889 48.4492C159.721 46.6149 160.894 45.2135 162.41 44.2451C163.936 43.2653 165.68 42.7754 167.639 42.7754C169.633 42.7754 171.388 43.2596 172.903 44.228C174.43 45.1851 175.603 46.5807 176.423 48.415C177.244 50.238 177.654 52.3628 177.654 54.7896V56.3618ZM174.39 54.7554C174.39 51.8045 173.797 49.543 172.612 47.9707C171.427 46.387 169.77 45.5952 167.639 45.5952C165.566 45.5952 163.931 46.387 162.734 47.9707C161.549 49.543 160.94 51.7305 160.906 54.5332V56.3618C160.906 59.2215 161.504 61.4717 162.7 63.1123C163.908 64.7415 165.566 65.5562 167.673 65.5562C169.792 65.5562 171.433 64.7871 172.595 63.249C173.757 61.6995 174.355 59.4836 174.39 56.6011V54.7554Z" fill="black"/>
<rect x="1226" width="18" height="689" fill="white"/>
<rect x="1226" width="18" height="296" fill="#544545"/>
<path d="M113.592 345H110.217V319.406H113.592V345ZM124.139 319.406L132.506 340.289L140.873 319.406H145.25V345H141.875V335.033L142.191 324.275L133.789 345H131.205L122.82 324.328L123.154 335.033V345H119.779V319.406H124.139ZM165.658 338.32H154.936L152.527 345H149.047L158.82 319.406H161.773L171.564 345H168.102L165.658 338.32ZM155.955 335.543H164.656L160.297 323.572L155.955 335.543ZM193.695 341.643C192.828 342.885 191.615 343.816 190.057 344.438C188.51 345.047 186.705 345.352 184.643 345.352C182.557 345.352 180.705 344.865 179.088 343.893C177.471 342.908 176.217 341.514 175.326 339.709C174.447 337.904 173.996 335.812 173.973 333.434V331.201C173.973 327.346 174.869 324.357 176.662 322.236C178.467 320.115 180.998 319.055 184.256 319.055C186.928 319.055 189.078 319.74 190.707 321.111C192.336 322.471 193.332 324.404 193.695 326.912H190.32C189.688 323.525 187.672 321.832 184.273 321.832C182.012 321.832 180.295 322.629 179.123 324.223C177.963 325.805 177.377 328.102 177.365 331.113V333.205C177.365 336.076 178.021 338.361 179.334 340.061C180.646 341.748 182.422 342.592 184.66 342.592C185.926 342.592 187.033 342.451 187.982 342.17C188.932 341.889 189.717 341.414 190.338 340.746V334.998H184.414V332.256H193.695V341.643ZM213.805 333.17H202.713V342.24H215.598V345H199.338V319.406H215.422V322.184H202.713V330.41H213.805V333.17ZM224.158 319.406L232.525 340.289L240.893 319.406H245.27V345H241.895V335.033L242.211 324.275L233.809 345H231.225L222.84 324.328L223.174 335.033V345H219.799V319.406H224.158ZM260.158 345V319.406H267.383C269.609 319.406 271.578 319.898 273.289 320.883C275 321.867 276.318 323.268 277.244 325.084C278.182 326.9 278.656 328.986 278.668 331.342V332.977C278.668 335.391 278.199 337.506 277.262 339.322C276.336 341.139 275.006 342.533 273.271 343.506C271.549 344.479 269.539 344.977 267.242 345H260.158ZM263.533 322.184V342.24H267.084C269.686 342.24 271.707 341.432 273.148 339.814C274.602 338.197 275.328 335.895 275.328 332.906V331.412C275.328 328.506 274.643 326.25 273.271 324.645C271.912 323.027 269.979 322.207 267.471 322.184H263.533ZM297.529 338.32H286.807L284.398 345H280.918L290.691 319.406H293.645L303.436 345H299.973L297.529 338.32ZM287.826 335.543H296.527L292.168 323.572L287.826 335.543ZM320.17 319.406L328.537 340.289L336.904 319.406H341.281V345H337.906V335.033L338.223 324.275L329.82 345H327.236L318.852 324.328L319.186 335.033V345H315.811V319.406H320.17ZM361.689 338.32H350.967L348.559 345H345.078L354.852 319.406H357.805L367.596 345H364.133L361.689 338.32ZM351.986 335.543H360.688L356.328 323.572L351.986 335.543ZM380.428 334.646H374.416V345H371.023V319.406H379.496C382.379 319.406 384.594 320.062 386.141 321.375C387.699 322.688 388.479 324.598 388.479 327.105C388.479 328.699 388.045 330.088 387.178 331.271C386.322 332.455 385.127 333.34 383.592 333.926L389.604 344.789V345H385.982L380.428 334.646ZM374.416 331.887H379.602C381.277 331.887 382.607 331.453 383.592 330.586C384.588 329.719 385.086 328.559 385.086 327.105C385.086 325.523 384.611 324.311 383.662 323.467C382.725 322.623 381.365 322.195 379.584 322.184H374.416V331.887ZM412.051 336.879C411.734 339.586 410.732 341.678 409.045 343.154C407.369 344.619 405.137 345.352 402.348 345.352C399.324 345.352 396.898 344.268 395.07 342.1C393.254 339.932 392.346 337.031 392.346 333.398V330.938C392.346 328.559 392.768 326.467 393.611 324.662C394.467 322.857 395.674 321.475 397.232 320.514C398.791 319.541 400.596 319.055 402.646 319.055C405.365 319.055 407.545 319.816 409.186 321.34C410.826 322.852 411.781 324.949 412.051 327.633H408.658C408.365 325.594 407.727 324.117 406.742 323.203C405.77 322.289 404.404 321.832 402.646 321.832C400.49 321.832 398.797 322.629 397.566 324.223C396.348 325.816 395.738 328.084 395.738 331.025V333.504C395.738 336.281 396.318 338.49 397.479 340.131C398.639 341.771 400.262 342.592 402.348 342.592C404.223 342.592 405.658 342.17 406.654 341.326C407.662 340.471 408.33 338.988 408.658 336.879H412.051ZM430.807 338.32H420.084L417.676 345H414.195L423.969 319.406H426.922L436.713 345H433.25L430.807 338.32ZM421.104 335.543H429.805L425.445 323.572L421.104 335.543Z" fill="black"/>
<circle cx="48" cy="56" r="22" fill="#C4C4C4"/>
</svg>
